<svg viewBox="0 0 24 24" xmlns="http://www.w3.org/2000/svg" width="24.000000" height="24.000000">
  <title>zoom-out</title>
  <path
    d="M18.1381 6.02306C18.5687 6.64196 18.9145 7.30883 19.1747 8.02367C19.578 9.13219 19.7499 10.271 19.6903 11.4401C19.6322 12.5688 19.3637 13.6475 18.8842 14.6761C18.6306 15.2195 18.3287 15.7268 17.9784 16.198C17.8668 16.3481 17.7497 16.4948 17.6283 16.6377L21.4623 20.4721C21.6591 20.7456 21.7084 21.2161 21.4623 21.4621C21.2167 21.7082 20.8329 21.7327 20.5595 21.5359L16.6381 17.6276C15.85 18.2996 14.9623 18.8152 13.975 19.1746C12.8661 19.5782 11.7274 19.7499 10.5585 19.6902C9.42961 19.6325 8.35099 19.3638 7.32267 18.8842C6.77905 18.6308 6.27156 18.3288 5.80021 17.9782C5.37964 17.6652 4.98787 17.3136 4.62492 16.9234C4.26555 16.5371 3.94621 16.1253 3.66691 15.688C3.32642 15.1548 3.04549 14.5838 2.82414 13.9749C2.60246 13.3659 2.4506 12.7478 2.36857 12.1208C2.30152 11.6062 2.2815 11.0853 2.30851 10.5585C2.33553 10.0262 2.40959 9.50496 2.53068 8.99487C2.66643 8.42342 2.86093 7.86596 3.11418 7.3225C3.36776 6.77905 3.66984 6.27173 4.02043 5.80053C4.33326 5.37996 4.68482 4.98803 5.07512 4.62499C5.46151 4.2657 5.8733 3.94641 6.31047 3.66711C6.84367 3.32661 7.4148 3.04557 8.02385 2.82397C8.48283 2.65681 8.9493 2.52937 9.42326 2.44164C9.70874 2.38883 9.99699 2.35042 10.288 2.32641C11.0385 2.2644 11.7851 2.30004 12.5277 2.43322C13.2816 2.56847 14.0058 2.79931 14.7001 3.12572C15.0458 3.28808 15.3788 3.47216 15.7001 3.67797C16.0297 3.88952 16.1229 4.31506 15.9115 4.64513C15.7001 4.97509 15.2743 5.06811 14.9442 4.85656C14.6747 4.68371 14.3949 4.52917 14.1049 4.39281C13.7898 4.24479 13.4677 4.1202 13.1386 4.01904C12.858 3.93278 12.5721 3.86352 12.2807 3.81127C11.6581 3.69958 11.0321 3.66967 10.4032 3.72167C10.1747 3.74047 9.94797 3.76997 9.72306 3.81017C9.30965 3.88399 8.90275 3.99377 8.50236 4.13952C7.98251 4.32881 7.49553 4.56953 7.04142 4.86169C6.68335 5.09241 6.34578 5.35522 6.02873 5.65014C5.70516 5.95117 5.41317 6.27588 5.15275 6.62426C4.85458 7.02319 4.59807 7.45316 4.38322 7.91418C4.16838 8.37511 4.00383 8.84797 3.88957 9.33276C3.78996 9.7561 3.72892 10.1885 3.70646 10.63C3.68433 11.0624 3.70012 11.49 3.75383 11.9128C3.82154 12.4482 3.95012 12.976 4.13957 13.496C4.3287 14.0161 4.56942 14.503 4.86174 14.9568C5.09254 15.3151 5.35539 15.6528 5.65031 15.9699C5.95109 16.2935 6.2758 16.5855 6.62443 16.8457C7.0232 17.1438 7.45305 17.4004 7.91398 17.6154C8.37525 17.8303 8.84823 17.9948 9.33293 18.1088C9.7561 18.2084 10.1884 18.2694 10.6298 18.292C11.6098 18.3421 12.5653 18.1978 13.496 17.859C14.0162 17.6697 14.5032 17.429 14.9569 17.1369C15.315 16.9061 15.6526 16.6433 15.9696 16.3484C16.2936 16.0474 16.5856 15.7227 16.8456 15.3743C17.1438 14.9753 17.4003 14.5454 17.6151 14.0844C18.018 13.2209 18.2436 12.3156 18.2919 11.3686C18.3422 10.3886 18.1977 9.43322 17.8588 8.50256C17.6405 7.90197 17.3505 7.34203 16.9892 6.82299C16.765 6.50121 16.8417 6.0725 17.1635 5.8485C17.4853 5.6245 17.914 5.70129 18.1381 6.02306Z"
  />
  <path
    d="M15 10.4004C15.3862 10.4004 15.6997 10.7137 15.6997 11.1003C15.6997 11.4869 15.3862 11.8004 15 11.8004L7 11.8004C6.61328 11.8004 6.2998 11.4869 6.2998 11.1003C6.2998 10.7137 6.61328 10.4004 7 10.4004L15 10.4004Z"
  />
</svg>
