<svg version="1.1" xmlns="http://www.w3.org/2000/svg" width="24" height="24" viewBox="0 0 24 24">
<title>danger</title>
<path fill="currentColor" d="M21 12c0 4.971-4.029 9-9 9s-9-4.029-9-9c0-4.971 4.029-9 9-9s9 4.029 9 9z"></path>
<path fill="#fff" d="M13.767 13.060l2.268 2.268 0.029 0.032c0.166 0.196 0.156 0.49-0.029 0.675s-0.479 0.195-0.675 0.029l-0.032-0.029-2.268-2.268c-0.174-0.174-0.193-0.443-0.058-0.638l0.058-0.069c0.195-0.195 0.512-0.195 0.707 0zM8.641 7.936l0.032 0.029 3.327 3.328 3.328-3.328c0.195-0.195 0.512-0.195 0.707 0 0.185 0.185 0.195 0.479 0.029 0.675l-0.029 0.032-7.362 7.362c-0.195 0.195-0.512 0.195-0.707 0-0.185-0.185-0.195-0.479-0.029-0.675l0.029-0.032 3.328-3.328-3.357-3.359c-0.166-0.196-0.156-0.49 0.029-0.675s0.479-0.195 0.675-0.029z"></path>
</svg>
