<svg version="1.1" xmlns="http://www.w3.org/2000/svg" width="24" height="24" viewBox="0 0 24 24">
<title>success</title>
<path fill="currentColor" d="M21 12c0 4.971-4.029 9-9 9s-9-4.029-9-9c0-4.971 4.029-9 9-9s9 4.029 9 9z"></path>
<path fill="#fff" d="M16.281 8.75c0.195-0.195 0.512-0.195 0.707 0.001 0.173 0.174 0.192 0.443 0.057 0.638l-0.058 0.069-5.225 5.212c-0.455 0.454-1.172 0.485-1.663 0.092l-0.101-0.091-2.478-2.465c-0.196-0.195-0.197-0.511-0.002-0.707 0.173-0.174 0.442-0.194 0.638-0.060l0.069 0.058 2.478 2.465c0.081 0.081 0.204 0.094 0.3 0.040l0.053-0.041 5.225-5.212z"></path>
</svg>
