<svg version="1.1" xmlns="http://www.w3.org/2000/svg" width="24" height="24" viewBox="0 0 24 24">
<title>warning</title>
<path fill="currentColor" d="M21 12c0 4.971-4.029 9-9 9s-9-4.029-9-9c0-4.971 4.029-9 9-9s9 4.029 9 9z"></path>
<path fill="#fff" d="M12 14.671c0.552 0 1 0.448 1 1s-0.448 1-1 1c-0.552 0-1-0.448-1-1s0.448-1 1-1zM12 13.521c0.175 0 0.32-0.136 0.332-0.31l0.367-5.441c0.026-0.386-0.266-0.721-0.652-0.747-0.016-0.001-0.031-0.002-0.047-0.002-0.387 0-0.701 0.314-0.701 0.701 0 0.016 0.001 0.032 0.002 0.047l0.367 5.441c0.012 0.175 0.157 0.31 0.332 0.31z"></path>
</svg>
