
<svg xmlns="http://www.w3.org/2000/svg" width="24" height="24" viewBox="0 0 24 24">
  <path class="cls-2" fill="currentColor" d="M12.16,5.54a.48.48,0,0,1,.34.14h0l4.34,4.06a.52.52,0,0,1,.16.37h0V22a.5.5,0,0,1-.5.5H3.5A.5.5,0,0,1,3,22H3V6a.5.5,0,0,1,.5-.5h8.66Zm-.66,1H4v15H16V10.61H12a.5.5,0,0,1-.49-.41V6.54ZM20.25,2a.5.5,0,0,1,.49.41V19.5a.5.5,0,0,1-.41.49H18.52a.5.5,0,0,1-.5-.5.49.49,0,0,1,.41-.49h1.32V3H8.25V4a.51.51,0,0,1-.41.49H7.75a.5.5,0,0,1-.49-.41V2.5A.5.5,0,0,1,7.66,2H20.25ZM12,17a.5.5,0,0,1,.09,1H6a.5.5,0,0,1-.09-1H12Zm1.5-4a.5.5,0,0,1,.09,1H6a.5.5,0,0,1-.09-1H13.5Zm-1-6V9.61h2.74Z"></path>
</svg>