<?xml version="1.0" encoding="UTF-8"?>
<svg width="68px" height="28px" viewBox="0 0 68 28" version="1.1" xmlns="http://www.w3.org/2000/svg" xmlns:xlink="http://www.w3.org/1999/xlink">
    <title>a备份</title>
    <defs>
        <polygon id="path-1" points="0.127909584 0.067012704 4.94196912 0.067012704 4.94196912 8.09965094 0.127909584 8.09965094"></polygon>
    </defs>
    <g id="a备份" stroke="none" stroke-width="1" fill="none" fill-rule="evenodd">
        <g id="编组" transform="translate(1.000000, 1.000000)">
            <polygon id="Fill-1" fill="#C7000B" points="5.77825142 10.3773336 4.73542502 13.3007324 -6.9696e-05 12.4973117 5.58153446 16.4806124 25.8564493 0.000121968"></polygon>
            <polygon id="Fill-2" fill="#DBDADA" points="6.44498078 17.0960455 18.8132329 25.9432557 13.5736619 17.4809416 24.4119126 2.35081123"></polygon>
            <g transform="translate(26.310240, 10.610171)">
                <path d="M0.056070432,0.005000688 L1.27923523,0.005000688 L1.27923523,3.77834213 C1.50470179,3.48352805 1.72163059,3.17982773 1.92967315,2.89355141 L3.97681891,0.005000688 L5.34739075,0.005000688 L2.89252339,3.30998501 L5.55543331,7.50847205 L4.16778595,7.50847205 L2.12064019,4.19477573 L1.27923523,5.14037621 L1.27923523,7.50847205 L0.056070432,7.50847205 L0.056070432,0.005000688 Z" id="Fill-3" fill="#000000"></path>
                <path d="M6.56165189,7.07473642 C6.28408757,6.72782458 6.13685477,6.1986577 6.13685477,5.50465978 L6.13685477,1.91339914 L7.33370933,1.91339914 L7.33370933,5.41788826 C7.33370933,5.82560986 7.40305685,6.12931018 7.54192613,6.31139098 C7.68933317,6.50218378 7.89754997,6.5889553 8.17511429,6.5889553 C8.65218341,6.5889553 9.11200277,6.33752698 9.55439813,5.82560986 L9.55439813,1.91339914 L10.7599647,1.91339914 L10.7599647,6.10317418 C10.7599647,6.5715313 10.7686767,7.04006266 10.8033504,7.50841978 L9.68438117,7.50841978 C9.64099541,7.29166522 9.60632165,7.0053889 9.58035989,6.64976506 C9.41552885,6.84055786 9.25069781,6.9966769 9.09457877,7.12683418 C8.92974773,7.26552922 8.73895493,7.37843674 8.52202613,7.46503402 C8.30527157,7.56051754 8.05366901,7.6126153 7.78481669,7.6126153 C7.25564981,7.6126153 6.84810245,7.43036026 6.56165189,7.07473642" id="Fill-5" fill="#000000"></path>
                <path d="M12.3039228,3.34472846 C12.3039228,2.81556158 12.2952108,2.34703022 12.2694232,1.91334686 L13.396756,1.91334686 C13.4143543,2.03479214 13.4317783,2.18237342 13.4488538,2.35574222 C13.4662778,2.52928526 13.4837018,2.6679803 13.4922396,2.78942558 C13.6485328,2.58992078 13.8131896,2.42508974 13.9780207,2.2951067 C14.134314,2.15623742 14.3251068,2.04350414 14.5420356,1.94802062 C14.7675021,1.86142334 15.0102184,1.80932558 15.287957,1.80932558 C15.8082376,1.80932558 16.2072472,1.99140638 16.4935236,2.34703022 C16.7797999,2.7115403 16.9184949,3.23199518 16.9184949,3.92581886 L16.9184949,7.5083675 L15.7216404,7.5083675 L15.7216404,4.01259038 C15.7216404,3.22328318 15.435364,2.82427358 14.8802354,2.82427358 C14.6199208,2.82427358 14.3857423,2.8936211 14.1602757,3.04102814 C13.9433469,3.17989742 13.7265924,3.37069022 13.5096636,3.61358078 L13.5096636,7.5083675 L12.3039228,7.5083675 L12.3039228,3.34472846 Z" id="Fill-7" fill="#000000"></path>
                <path d="M21.5505433,6.13784794 C21.7936081,5.7909361 21.9148792,5.27919322 21.9148792,4.60244506 C21.9148792,3.9779689 21.8108579,3.52686154 21.6113531,3.24058522 C21.4118483,2.9630209 21.1341097,2.82415162 20.7959099,2.82415162 C20.5617313,2.82415162 20.3448025,2.88496138 20.145472,2.99769466 C19.9459672,3.11913994 19.7637121,3.27525898 19.5816313,3.46622602 L19.5816313,6.46751002 C19.7029024,6.52831978 19.8417717,6.5715313 19.9978907,6.61491706 C20.1627217,6.64976506 20.319015,6.66701482 20.4749598,6.66701482 C20.9434912,6.66701482 21.299115,6.49364602 21.5505433,6.13784794 L21.5505433,6.13784794 Z M18.3758905,3.28397098 C18.3758905,2.86753738 18.3586408,2.41660426 18.3325048,1.91339914 L19.4688981,1.91339914 C19.5122838,2.1475777 19.5382456,2.38175626 19.5556696,2.62464682 C20.0238525,2.08694218 20.5617313,1.80937786 21.1689577,1.80937786 C21.5245816,1.80937786 21.8455317,1.90468714 22.149232,2.09547994 C22.4440461,2.28644698 22.6867624,2.58126106 22.8690174,2.98898266 C23.0599845,3.38799226 23.1465817,3.90862138 23.1465817,4.53309754 C23.1465817,5.1837097 23.0425605,5.73883834 22.8343437,6.2073697 C22.6263011,6.66701482 22.3311385,7.01392666 21.9495529,7.25699146 C21.5765051,7.49117002 21.1341097,7.6126153 20.6397909,7.6126153 C20.284167,7.6126153 19.9285432,7.55180554 19.5816313,7.4218225 L19.5816313,9.72910858 L18.3758905,9.8420161 L18.3758905,3.28397098 Z" id="Fill-9" fill="#000000"></path>
                <path d="M27.4403432,4.06467072 C27.4229192,3.61356336 27.3101859,3.28407552 27.1281051,3.05843472 C26.9371381,2.83279392 26.6857098,2.72023488 26.3647597,2.72023488 C26.0612336,2.72023488 25.8096311,2.83279392 25.6014143,3.05843472 C25.4019095,3.28407552 25.2632144,3.62227536 25.2024047,4.06467072 L27.4403432,4.06467072 Z M28.6201223,4.87140192 L25.1677309,4.87140192 C25.2285407,6.04246896 25.7488213,6.63227136 26.7465195,6.63227136 C26.9979479,6.63227136 27.2495504,6.59777184 27.5096907,6.53696208 C27.7700053,6.46761456 28.0128959,6.38084304 28.2557864,6.27664752 L28.5159267,7.15290048 C27.9261243,7.45642656 27.2668002,7.6125456 26.5294165,7.6125456 C25.9657501,7.6125456 25.497393,7.49981232 25.1156331,7.27417152 C24.7253355,7.04870496 24.4390592,6.72775488 24.2482664,6.30278352 C24.0487616,5.87763792 23.9532781,5.37460704 23.9532781,4.7846304 C23.9532781,4.16015424 24.0574736,3.63098736 24.2655162,3.188592 C24.4651952,2.73748464 24.7512973,2.39911056 25.1156331,2.164932 C25.488681,1.93075344 25.9049403,1.80930816 26.3908957,1.80930816 C26.8852146,1.80930816 27.3014739,1.93946544 27.6400223,2.182356 C27.9695101,2.43395856 28.2209384,2.7547344 28.3772317,3.171168 C28.5418885,3.5788896 28.6201223,4.03870896 28.6201223,4.53302784 L28.6201223,4.87140192 Z" id="Fill-11" fill="#000000"></path>
                <path d="M29.7910499,3.34472846 C29.7910499,2.81556158 29.7823379,2.34703022 29.7563761,1.91334686 L30.8838832,1.91334686 C30.9013072,2.03479214 30.9187312,2.18237342 30.9359809,2.35574222 C30.9534049,2.52928526 30.9708289,2.6679803 30.9793667,2.78942558 C31.1354857,2.58992078 31.3003168,2.42508974 31.4651478,2.2951067 C31.6212669,2.15623742 31.8122339,2.04350414 32.0289885,1.94802062 C32.2546293,1.86142334 32.4973456,1.80932558 32.7749099,1.80932558 C33.2953648,1.80932558 33.6943744,1.99140638 33.9806507,2.34703022 C34.2667528,2.7115403 34.4056221,3.23199518 34.4056221,3.92581886 L34.4056221,7.5083675 L33.2085933,7.5083675 L33.2085933,4.01259038 C33.2085933,3.22328318 32.9224912,2.82427358 32.3584763,2.82427358 C32.107048,2.82427358 31.8726952,2.8936211 31.6472286,3.04102814 C31.4304741,3.17989742 31.2135453,3.37069022 30.9967907,3.61358078 L30.9967907,7.5083675 L29.7910499,7.5083675 L29.7910499,3.34472846 Z" id="Fill-13" fill="#000000"></path>
                <g transform="translate(35.370720, 1.742400)">
                    <mask id="mask-2" fill="white">
                        <use xlink:href="#path-1"></use>
                    </mask>
                    <g id="Clip-16"></g>
                    <path d="M3.14644334,4.65579734 C3.36337214,4.52564006 3.55416494,4.36952102 3.70174622,4.18744022 L3.70174622,1.27257926 C3.5714147,1.19469398 3.4154699,1.12517222 3.24192686,1.07307446 C3.06855806,1.0296887 2.89501502,1.00390118 2.72147198,1.00390118 C2.44390766,1.00390118 2.2097291,1.08178646 2.0015123,1.2466175 C1.7932955,1.40273654 1.63717646,1.6456271 1.52426894,1.96657718 C1.4117099,2.27881526 1.35090014,2.6779991 1.35090014,3.13764422 C1.35090014,3.73615862 1.45509566,4.16984198 1.65442622,4.44758054 C1.85410526,4.71643286 2.11424558,4.85530214 2.42648366,4.85530214 C2.68662398,4.85530214 2.92968878,4.78595462 3.14644334,4.65579734 M1.34236238,7.96078166 C1.0214123,7.86529814 0.735135984,7.76127686 0.466109424,7.63111958 L0.726423984,6.7029431 C1.29026462,6.98921942 1.8281435,7.13662646 2.33971214,7.13662646 C2.7821075,7.13662646 3.12048158,7.01535542 3.35466014,6.78100262 C3.5888387,6.54682406 3.70174622,6.15635222 3.70174622,5.61864758 L3.70174622,5.04609494 C3.49335518,5.2976975 3.25917662,5.4972023 3.0164603,5.64460934 C2.76485774,5.79219062 2.46986942,5.87025014 2.11424558,5.87025014 C1.74990974,5.87025014 1.4204219,5.77476662 1.11689582,5.58397382 C0.821733264,5.40171878 0.579016944,5.10673046 0.396761904,4.6991831 C0.214681104,4.29999926 0.127909584,3.77971862 0.127909584,3.16378022 C0.127909584,2.53041782 0.223393104,1.97528918 0.422723664,1.51564406 C0.622402704,1.0471127 0.908504784,0.691488864 1.28155262,0.439886304 C1.66313822,0.196995744 2.10553358,0.067012704 2.63470046,0.067012704 C2.86887902,0.067012704 3.09434558,0.101512224 3.31127438,0.171033984 C3.53674094,0.231669504 3.72770798,0.318441024 3.88365278,0.431174304 L4.13542958,0.171033984 L4.94216078,0.171033984 C4.91602478,0.639391104 4.89877502,1.09921046 4.89877502,1.55031782 L4.89877502,5.67945734 C4.89877502,6.19991222 4.7945795,6.64230758 4.58653694,7.00646918 C4.3781459,7.37097926 4.09204382,7.63965734 3.72770798,7.82191238 C3.36337214,8.00416742 2.94693854,8.09965094 2.48729342,8.09965094 C2.03618606,8.09965094 1.65442622,8.05626518 1.34236238,7.96078166" id="Fill-15" fill="#000000" mask="url(#mask-2)"></path>
                </g>
            </g>
        </g>
    </g>
</svg>