<svg xmlns="http://www.w3.org/2000/svg" xmlns:xlink="http://www.w3.org/1999/xlink" width="48" height="48" viewBox="0 0 48 48" version="1.1" style="max-width: 200px; max-height: 200px;">
    <title>ic_oth_dimensionality</title>
    <g id="ic_oth_dimensionality" stroke="none" stroke-width="1" fill="none" fill-rule="evenodd">
        <path d="M23.4122147,4.19098301 C23.7627022,3.936339 24.2372978,3.936339 24.5877853,4.19098301 L24.5877853,4.19098301 L44.5599721,18.7016261 C44.9104595,18.9562701 45.0571176,19.4076375 44.9232434,19.8196601 L44.9232434,19.8196601 L37.2945468,43.2983739 C37.1606725,43.7103965 36.7767166,43.9893569 36.3434903,43.9893569 L36.3434903,43.9893569 L11.6565097,43.9893569 C11.2232834,43.9893569 10.8393275,43.7103965 10.7054532,43.2983739 L10.7054532,43.2983739 L3.07675664,19.8196601 C2.94288236,19.4076375 3.0895405,18.9562701 3.44002791,18.7016261 L3.44002791,18.7016261 Z M5.55374495,20.971 L12.1057449,41.138 L15.4800135,36.3579108 C15.7029355,36.042055 16.1397011,35.9667174 16.4555568,36.1896393 C16.7426984,36.3922957 16.8310647,36.7716823 16.6772737,37.0762939 L16.6238282,37.1651826 L13.2187449,41.988 L34.7797449,41.988 L30.8417449,36.408 L18.9720915,36.4082039 L18.9720915,35.0082039 L29.8537449,35.008 L23.9997449,26.713 L18.9347024,33.8909303 C18.7117804,34.206786 18.2750148,34.2821237 17.9591591,34.0592017 C17.6720175,33.8565453 17.5836512,33.4771587 17.7374422,33.1725471 L17.7908876,33.0836584 L22.9357449,25.792 L13.6207449,23.209 L16.7938361,32.9728683 L15.462357,33.4054921 L12.0027449,22.76 L5.55374495,20.971 Z M42.5947449,20.511 L36.0747449,22.517 L31.8747449,35.444 L35.8927449,41.137 L42.5947449,20.511 Z M24.6997449,6.744 L24.7,11.7319552 C24.7,12.1185545 24.3865993,12.4319552 24,12.4319552 C23.6456173,12.4319552 23.3527418,12.1686116 23.3063902,11.8269411 L23.3,11.7319552 L23.2997449,6.744 L5.67074495,19.551 L12.5447449,21.457 L20.6918098,15.5382933 L21.5147091,16.6709171 L14.2677449,21.935 L23.2997449,24.44 L23.3,18.0363017 C23.3,17.6497024 23.6134007,17.3363017 24,17.3363017 C24.3543827,17.3363017 24.6472582,17.5996454 24.6936098,17.9413159 L24.7,18.0363017 L24.7,24.5 L24.6957449,24.553 L27.8239093,23.5910257 C28.1934128,23.4773323 28.5851213,23.6847074 28.6988147,24.0542109 C28.8021723,24.3901232 28.6401841,24.7443867 28.332264,24.8914416 L28.2356295,24.9291163 L25.1287449,25.885 L30.8667449,34.015 L34.4387449,23.02 L32.0244617,23.7633217 C31.6549582,23.8770151 31.2632497,23.66964 31.1495563,23.3001365 C31.0461987,22.9642242 31.2081869,22.6099607 31.516107,22.4629058 L31.6127416,22.4252311 L33.5737449,21.821 L26.3874611,16.5998396 L27.2103604,15.4672158 L35.2477449,21.306 L41.9177449,19.253 L24.6997449,6.744 Z" id="group1" fill="#000" fill-rule="nonzero"></path>
        <path d="M17,32.3 C18.4911688,32.3 19.7,33.5088312 19.7,35 C19.7,36.4911688 18.4911688,37.7 17,37.7 C15.5088312,37.7 14.3,36.4911688 14.3,35 C14.3,33.5088312 15.5088312,32.3 17,32.3 Z M17,33.7 C16.2820298,33.7 15.7,34.2820298 15.7,35 C15.7,35.7179702 16.2820298,36.3 17,36.3 C17.7179702,36.3 18.3,35.7179702 18.3,35 C18.3,34.2820298 17.7179702,33.7 17,33.7 Z M30,21.3 C31.4911688,21.3 32.7,22.5088312 32.7,24 C32.7,25.4911688 31.4911688,26.7 30,26.7 C28.5088312,26.7 27.3,25.4911688 27.3,24 C27.3,22.5088312 28.5088312,21.3 30,21.3 Z M30,22.7 C29.2820298,22.7 28.7,23.2820298 28.7,24 C28.7,24.7179702 29.2820298,25.3 30,25.3 C30.7179702,25.3 31.3,24.7179702 31.3,24 C31.3,23.2820298 30.7179702,22.7 30,22.7 Z M24,11.3 C26.0434536,11.3 27.7,12.9565464 27.7,15 C27.7,17.0434536 26.0434536,18.7 24,18.7 C21.9565464,18.7 20.3,17.0434536 20.3,15 C20.3,12.9565464 21.9565464,11.3 24,11.3 Z M24,12.7 C22.7297451,12.7 21.7,13.7297451 21.7,15 C21.7,16.2702549 22.7297451,17.3 24,17.3 C25.2702549,17.3 26.3,16.2702549 26.3,15 C26.3,13.7297451 25.2702549,12.7 24,12.7 Z" id="group2" fill="#cb0007" fill-rule="nonzero"></path>
    </g>
</svg>