<?xml version="1.0" encoding="UTF-8"?>
<svg width="48px" height="48px" viewBox="0 0 48 48" version="1.1" xmlns="http://www.w3.org/2000/svg" xmlns:xlink="http://www.w3.org/1999/xlink">
    <title>正常/辅助修饰类/电脑 &amp; 开发/程序设计 &amp; 软件开发</title>
    <g id="页面-1" stroke="none" stroke-width="1" fill="none" fill-rule="evenodd">
        <g id="画板" transform="translate(-36.000000, -20.000000)" fill-rule="nonzero">
            <g id="编组" transform="translate(36.000000, 20.000000)">
                <path d="M13.7498597,18.5606495 C14.0198458,18.2257709 14.5166434,18.2161482 14.8016719,18.5169137 L14.8682633,18.5985629 L19.7135876,25.5201098 C19.9352951,25.8368191 19.858281,26.2732923 19.5415717,26.4949998 C19.2536541,26.6965522 18.8667582,26.6512271 18.6322208,26.403372 L18.5666817,26.322984 L14.255,20.164 L9.54495062,26.006796 C9.32436284,26.2804032 8.94010561,26.34435 8.64594204,26.1714115 L8.56064955,26.1123962 C8.28704235,25.8918084 8.22309557,25.5075512 8.39603405,25.2133876 L8.45504938,25.1280951 L13.7498597,18.5606495 Z" id="路径" fill="#C7000B" transform="translate(14.070085, 22.460801) rotate(-92.000000) translate(-14.070085, -22.460801) "></path>
                <path d="M33.7498597,18.5606495 C34.0198458,18.2257709 34.5166434,18.2161482 34.8016719,18.5169137 L34.8682633,18.5985629 L39.7135876,25.5201098 C39.9352951,25.8368191 39.858281,26.2732923 39.5415717,26.4949998 C39.2536541,26.6965522 38.8667582,26.6512271 38.6322208,26.403372 L38.5666817,26.322984 L34.255,20.164 L29.5449506,26.006796 C29.3243628,26.2804032 28.9401056,26.34435 28.645942,26.1714115 L28.5606495,26.1123962 C28.2870423,25.8918084 28.2230956,25.5075512 28.3960341,25.2133876 L28.4550494,25.1280951 L33.7498597,18.5606495 Z" id="路径备份" fill="#C7000B" transform="translate(34.070085, 22.460801) scale(-1, 1) rotate(-92.000000) translate(-34.070085, -22.460801) "></path>
                <path d="M25.8500663,17.2400265 C25.9936457,16.8810781 26.401025,16.7064869 26.7599735,16.8500663 C27.0862903,16.980593 27.2602456,17.3291362 27.1813037,17.6611123 L27.1499337,17.7599735 L23.1499337,27.7599735 C23.0063543,28.1189219 22.598975,28.2935131 22.2400265,28.1499337 C21.9137097,28.019407 21.7397544,27.6708638 21.8186963,27.3388877 L21.8500663,27.2400265 L25.8500663,17.2400265 Z" id="直线-4" fill="#C7000B"></path>
                <path d="M45,8 L3,8 C2.44771525,8 2,8.44771525 2,9 L2,36 C2,36.5522847 2.44771525,37 3,37 L45,37 C45.5522847,37 46,36.5522847 46,36 L46,9 C46,8.44771525 45.5522847,8 45,8 Z M44,10 L44,35 L4,35 L4,10 L44,10 Z" id="矩形" fill="#000000"></path>
                <path d="M36,39.5 C36.5522847,39.5 37,39.9477153 37,40.5 C37,41.0128358 36.6139598,41.4355072 36.1166211,41.4932723 L36,41.5 L12,41.5 C11.4477153,41.5 11,41.0522847 11,40.5 C11,39.9871642 11.3860402,39.5644928 11.8833789,39.5067277 L12,39.5 L36,39.5 Z" id="直线-6" fill="#000000"></path>
            </g>
        </g>
    </g>
</svg>