<?xml version="1.0" encoding="UTF-8"?>
<svg width="48px" height="48px" viewBox="0 0 48 48" version="1.1" xmlns="http://www.w3.org/2000/svg" xmlns:xlink="http://www.w3.org/1999/xlink">
    <title>编组 60</title>
    <g id="页面-1" stroke="none" stroke-width="1" fill="none" fill-rule="evenodd">
        <g id="编组-60">
            <rect id="矩形" stroke="#979797" fill="#D8D8D8" opacity="0" x="0.5" y="0.5" width="47" height="47"></rect>
            <g id="正常/系统通用类图标/48px/讨论备份" transform="translate(3.500000, 4.400000)" fill-rule="nonzero">
                <path d="M34.9705882,7.720589 L1,7.720589 C0.44771525,7.720589 0,8.16830425 0,8.720589 L0,32.345589 L0.00672773133,32.4622101 C0.0644928393,32.9595488 0.487164161,33.345589 1,33.345589 L6.829,33.345 L6.82982767,38.1093363 L6.83590642,38.2221054 C6.91212241,38.9218622 7.69011491,39.3384627 8.32342243,38.9790283 L18.249,33.345 L34.9705882,33.345589 C35.522873,33.345589 35.9705882,32.8978737 35.9705882,32.345589 L35.9705882,8.720589 C35.9705882,8.16830425 35.522873,7.720589 34.9705882,7.720589 Z M33.97,9.72 L33.97,31.345 L17.9852941,31.345589 L17.8563332,31.353939 C17.728447,31.3705704 17.6045644,31.4118403 17.4916994,31.475897 L8.829,36.392 L8.82982767,32.345589 L8.82309994,32.2289679 C8.76533483,31.7316292 8.34266351,31.345589 7.82982767,31.345589 L2,31.345 L2,9.72 L33.97,9.72 Z" id="矩形" fill="#000000"></path>
                <path d="M39.6029406,-1.77635684e-15 C40.1157764,-1.77635684e-15 40.5384477,0.38604019 40.5962128,0.883378875 L40.6029406,1 L40.6029406,26.1691176 C40.6029406,26.6819535 40.2169004,27.1046248 39.7195617,27.1623899 L39.6029406,27.1691176 L35.0864004,27.1691176 L35.0864004,25.1691176 L38.602,25.169 L38.602,1.999 L6.632,1.999 L6.63235232,8.62764002 L4.63235232,8.62764002 L4.63235232,1 C4.63235232,0.487164161 5.01839251,0.0644928393 5.5157312,0.00672773133 L5.63235232,-1.77635684e-15 L39.6029406,-1.77635684e-15 Z" id="路径" fill="#000000"></path>
                <path d="M27.2500003,15.7411766 C27.6365996,15.7411766 27.9500003,16.0545773 27.9500003,16.4411766 C27.9500003,16.7955594 27.6866567,17.0884349 27.3449862,17.1347865 L27.2500003,17.1411766 L8.72058854,17.1411766 C8.33398922,17.1411766 8.02058854,16.827776 8.02058854,16.4411766 C8.02058854,16.0867939 8.28393217,15.7939184 8.62560269,15.7475668 L8.72058854,15.7411766 L27.2500003,15.7411766 Z" id="直线" fill="#C7000B"></path>
                <path d="M27.2500003,23.4617656 C27.6365996,23.4617656 27.9500003,23.7751663 27.9500003,24.1617656 C27.9500003,24.5161484 27.6866567,24.8090239 27.3449862,24.8553755 L27.2500003,24.8617656 L8.72058854,24.8617656 C8.33398922,24.8617656 8.02058854,24.548365 8.02058854,24.1617656 C8.02058854,23.8073829 8.28393217,23.5145074 8.62560269,23.4681558 L8.72058854,23.4617656 L27.2500003,23.4617656 Z" id="直线备份" fill="#C7000B"></path>
            </g>
        </g>
    </g>
</svg>