<?xml version="1.0" encoding="UTF-8"?>
<svg width="48px" height="48px" viewBox="0 0 48 48" version="1.1" xmlns="http://www.w3.org/2000/svg" xmlns:xlink="http://www.w3.org/1999/xlink">
    <title>正常/商业应用/互联网 &amp; 人工智能/智能互联</title>
    <g id="正常/商业应用/互联网-&amp;-人工智能/智能互联" stroke="none" stroke-width="1" fill="none" fill-rule="evenodd">
        <path d="M4.81227726,8.15120182 C5.3319532,8.33816534 5.60166992,8.9110098 5.4147064,9.43068575 C3.6187889,14.4225427 7.68654235,23.6436192 15.46883,31.4259068 C16.983908,32.9409849 18.568027,34.3323352 20.1881124,35.5762413 C20.6261686,35.9125822 20.7086253,36.5403551 20.3722845,36.9784113 C20.0359436,37.4164676 19.4081708,37.4989242 18.9701145,37.1625834 C17.2806223,35.8653866 15.630999,34.4165029 14.0546164,32.8401204 C12.2566282,31.0421322 10.6427994,29.1664313 9.23984138,27.2711561 L8.68996792,26.5121399 C4.02296456,19.9273401 1.93296054,13.2004591 3.53279333,8.75363097 C3.71975684,8.23395502 4.29260131,7.9642383 4.81227726,8.15120182 Z M18.2170042,5.93182016 C18.7319891,6.13134211 18.9877224,6.71056435 18.7882004,7.22554924 C18.5886785,7.74053413 18.0094562,7.99626737 17.4944713,7.79674542 C13.5372981,6.26360739 10.7469486,5.75235196 8.67110579,6.34279365 C8.13989159,6.49388939 7.5867701,6.1857425 7.43567436,5.6545283 C7.28457862,5.1233141 7.59272552,4.57019261 8.12393971,4.41909687 C10.7361201,3.6761022 13.8829833,4.25267904 18.2170042,5.93182016 Z" id="形状" fill="#000000" fill-rule="nonzero"></path>
        <circle id="椭圆形" fill="#000000" cx="6.10526316" cy="6.68573578" r="1.05263158"></circle>
        <circle id="椭圆形备份" fill="#000000" cx="42.0662641" cy="12.7870624" r="1.05263158"></circle>
        <circle id="椭圆形备份-2" fill="#000000" cx="26.2767904" cy="40.6817992" r="1.05263158"></circle>
        <path d="M25.2425979,10.7126182 C25.575621,10.2720345 26.2027533,10.1848394 26.6433371,10.5178625 C28.4306761,11.8688548 30.176113,13.390609 31.8401204,15.0546164 C33.8592931,17.0737891 35.6394682,19.1814943 37.1487319,21.2995539 L37.616299,21.9686679 C38.4568589,23.1956734 39.2054888,24.4233914 39.8559956,25.636651 L40.2010492,26.2969039 C43.4417786,32.6637253 43.9232232,38.5518985 40.7375608,41.7375608 C38.2545956,44.2205261 34.0852164,44.5211018 29.1613484,42.8464406 C28.6384779,42.6686066 28.3587705,42.1005735 28.5366045,41.577703 C28.7144384,41.0548325 29.2824716,40.7751252 29.8053421,40.9529591 C34.0839073,42.4081458 37.4836396,42.1630549 39.3233473,40.3233473 C42.2574121,37.3892824 40.9801999,30.7834181 36.4802251,23.8761206 L36.0489409,23.2277812 C35.9754966,23.1196117 35.9012731,23.0113944 35.8262741,22.903142 L35.3670043,22.2533104 C35.0546606,21.8199463 34.7300298,21.3864333 34.393353,20.9535942 L33.8793335,20.3049439 L33.3474262,19.6579216 C32.446108,18.5812506 31.4710113,17.5139345 30.4259068,16.46883 C28.8267145,14.8696376 27.1508022,13.4084983 25.4373536,12.1133574 C24.9967699,11.7803343 24.9095748,11.153202 25.2425979,10.7126182 Z" id="路径" fill="#000000" fill-rule="nonzero"></path>
        <path d="M36.3096367,26.0650505 C36.7518164,26.3959516 36.8420255,27.0226575 36.5111243,27.4648372 C35.1271508,29.3142264 33.5596503,31.1205905 31.8401204,32.8401204 C23.865898,40.8143428 14.3357108,45.1869826 8.36832991,43.5558593 C7.10689462,43.2110587 6.02291359,42.6032984 5.15717601,41.7375608 C4.38222017,40.962605 3.81332489,40.0119755 3.45520635,38.9148601 C2.52527396,36.0659621 3.038515,32.2964244 4.82364416,28.1536697 C5.04219881,27.6464692 5.63053958,27.4124756 6.13774004,27.6310302 C6.6449405,27.8495849 6.87893416,28.4379257 6.66037951,28.9451261 C5.05053085,32.6811069 4.60128105,35.980656 5.35648027,38.2942495 C5.61920575,39.0991232 6.0246251,39.7765828 6.57138957,40.3233473 C7.18352693,40.9354846 7.96015448,41.3709197 8.89566471,41.626632 C14.0140192,43.0256825 22.9059061,38.9459076 30.4259068,31.4259068 C32.0783898,29.7734239 33.5833274,28.0391564 34.90985,26.2665382 C35.2407511,25.8243585 35.867457,25.7341494 36.3096367,26.0650505 Z M40.7375608,6.15717601 C41.6555618,7.07517695 42.2829912,8.23791723 42.6149524,9.59675792 C42.7460196,10.133265 42.4173457,10.6744409 41.8808387,10.8055081 C41.3443316,10.9365754 40.8031557,10.6079015 40.6720885,10.0713945 C40.4243132,9.05715804 39.9732922,8.22133451 39.3233473,7.57138957 C36.5726615,4.82070378 30.5948082,5.7713357 24.1668836,9.60877458 L23.5226937,10.002111 C23.415113,10.0692608 23.307433,10.1372049 23.1996665,10.2059397 L22.5521331,10.6278048 C22.4440722,10.6996867 22.3359506,10.7723517 22.2277812,10.8457959 L21.5782927,11.2957825 C21.0367449,11.6785136 20.4946431,12.0805379 19.9535942,12.5013839 L19.3049439,13.0154033 L18.6579216,13.5473106 C17.5812506,14.4486288 16.5139345,15.4237256 15.46883,16.46883 C13.9171731,18.0204869 12.4953748,19.6444766 11.2289336,21.3051558 C10.8940309,21.7443125 10.2665317,21.8288269 9.82737503,21.4939242 C9.38821837,21.1590214 9.30370389,20.5315222 9.63860667,20.0923656 C10.9594574,18.3603392 12.4401302,16.6691027 14.0546164,15.0546164 C15.1173389,13.991894 16.2045856,12.9953758 17.3049587,12.0697148 L17.9666665,11.5228583 C18.2982168,11.2537187 18.6307433,10.99104 18.9639383,10.7349478 L19.6311284,10.2315826 C22.5253574,8.08871173 25.4543858,6.44685226 28.2178846,5.38778231 L28.8525856,5.15376415 C33.7999635,3.40224382 38.1560758,3.57569099 40.7375608,6.15717601 Z M41.6918535,14.5052589 C42.2291688,14.6329723 42.5612167,15.1720846 42.4335033,15.7093999 C42.1030524,17.099672 41.5985174,18.5597539 40.9317528,20.0593559 C40.7073715,20.5640057 40.116375,20.7912083 39.6117252,20.566827 C39.1070753,20.3424457 38.8798727,19.7514492 39.104254,19.2467993 C39.7225823,17.8561341 40.1869369,16.5123309 40.4877125,15.2469088 C40.6154259,14.7095935 41.1545382,14.3775455 41.6918535,14.5052589 Z" id="形状" fill="#000000" fill-rule="nonzero"></path>
        <path d="M19.6867596,26.971192 L20.4340141,25.1341911 L23.4230325,25.1341911 L24.170287,26.971192 L24.9798128,26.971192 L22.3332862,20.6817992 L21.5237604,20.6817992 L18.9083694,26.971192 L19.6867596,26.971192 Z M23.2050832,24.5426146 L20.6519634,24.5426146 L21.9285233,21.3667826 L21.9596589,21.3667826 L23.2050832,24.5426146 Z M26.474322,26.971192 L26.474322,20.6817992 L25.7270674,20.6817992 L25.7270674,26.971192 L26.474322,26.971192 Z" id="AI" stroke="#C7000B" stroke-width="0.5" fill="#C7000B" fill-rule="nonzero" stroke-linejoin="round"></path>
    </g>
</svg>