<?xml version="1.0" encoding="UTF-8"?>
<svg width="48px" height="48px" viewBox="0 0 48 48" version="1.1" xmlns="http://www.w3.org/2000/svg" xmlns:xlink="http://www.w3.org/1999/xlink">
    <title>昇腾计算产业概述</title>
    <g id="昇腾计算产业概述" stroke="none" stroke-width="1" fill="none" fill-rule="evenodd">
        <g id="编组" fill-rule="nonzero">
            <g>
                <path d="M30.6361547,13.5 C31.6048419,13.5 32.3986547,14.2698778 32.3986547,15.2304636 L32.3986547,15.2304636 L32.3986547,20.1084829 L31.5211553,20.6062583 C28.9459584,22.083624 26.8668118,23.4564917 25.2857322,24.7218005 C25.1562686,24.8254078 25.0227635,24.9350212 24.8852096,25.0506506 L24.8852096,25.0506506 L24.4603933,25.4155977 C24.3875636,25.4794337 24.3137198,25.5447763 24.2388609,25.6116268 L24.2388609,25.6116268 L23.7775192,26.0308343 C23.6985963,26.1037214 23.6186564,26.1781189 23.5376986,26.2540281 L23.5376986,26.2540281 L23.0397296,26.7276343 L22.5172855,27.2375828 L21.6876297,28.0707819 L21.1037999,28.671855 L20.4953365,29.3094854 L19.5363539,30.33461 L18.8661079,31.0639019 L18.1710696,31.8299659 C17.0700481,32.9100091 15.9442766,33.2178648 14.9399667,32.5607343 C13.9419823,31.9077426 13.7446191,30.8556784 14.3195798,29.673984 L14.3195798,29.673984 L14.445289,29.4941921 L29.3566254,14.040315 C29.6900481,13.6947609 30.1530029,13.5 30.6361547,13.5 Z M29.4094457,23.946708 C30.4118362,23.5838147 31.4658293,23.4419846 32.5649611,23.52137 L32.5649611,23.52137 L33.1535982,23.5638846 L33.2458028,24.5163577 L33.3050608,25.219466 L33.3507397,25.8865266 C33.3572015,25.9947078 33.3630825,26.1013934 33.3683754,26.2065865 L33.3683754,26.2065865 L33.393016,26.8198606 C33.4803361,29.7969359 33.0249527,31.4364815 31.8259432,31.8240682 C30.6094741,32.2172988 29.215554,31.136796 27.4260577,28.6370195 L27.4260577,28.6370195 L27.0628195,28.1181567 L26.6886448,27.5615435 C26.4987587,27.2738153 26.304626,26.9719671 26.1060286,26.6560532 L26.1060286,26.6560532 L25.7769145,26.1325231 L26.2558549,25.7413506 C27.075437,25.0719608 28.0166243,24.5168876 29.0772355,24.0758598 L29.0772355,24.0758598 Z M30.6361547,14.9 C30.5312684,14.9 30.4324738,14.941562 30.3641017,15.0124218 L30.3641017,15.0124218 L15.5326547,30.383 L15.5184359,30.4168296 C15.3202156,30.875381 15.3626056,31.1265964 15.6284627,31.3337111 L15.6284627,31.3337111 L15.7064968,31.3892261 C16.0622165,31.6219772 16.5082094,31.5000151 17.1609072,30.8616064 C17.2794635,30.7300664 17.3970284,30.6000233 17.5136026,30.4714768 L17.5136026,30.4714768 L18.2011668,29.7181511 L18.864992,29.0007173 L19.5051143,28.319152 L20.1215697,27.6734316 L20.714394,27.0635328 L21.5594012,26.2157986 C21.650346,26.1260778 21.74031,26.037847 21.8292938,25.9511059 L21.8292938,25.9511059 L22.3514411,25.4485309 C22.4365074,25.3677463 22.5205951,25.2884504 22.6037049,25.2106427 L22.6037049,25.2106427 L23.0906352,24.7616504 L23.5541324,24.3483505 L23.9942325,23.9707196 C24.1370371,23.8507849 24.2759481,23.7367911 24.4109716,23.6287343 C26.1628191,22.226763 28.4765132,20.7151835 31.3545014,19.0902808 L31.3545014,19.0902808 L30.9986547,19.292 L30.9986547,15.2304636 C30.9986547,15.0750348 30.8780059,14.9385952 30.7105648,14.9069139 L30.7105648,14.9069139 Z M31.8726547,24.902 L31.8026246,24.9023495 C31.0407236,24.922915 30.312829,25.0782837 29.6147689,25.3685539 C28.9448893,25.647106 28.3332344,25.9745446 27.7790093,26.3507707 L27.7790093,26.3507707 L27.6356547,26.451 L27.8371504,26.757527 L28.1850546,27.2733235 L28.519514,27.7504092 C28.5741065,27.8267052 28.628116,27.9013939 28.6815311,27.9744782 L28.6815311,27.9744782 L28.9947986,28.3937537 L29.2932549,28.7746597 L29.5763535,29.1173325 C29.6680993,29.2251998 29.7571944,29.3267176 29.8435477,29.4219088 L29.8435477,29.4219088 L30.0942911,29.6885248 C30.6597412,30.2664482 31.0863786,30.535478 31.3429579,30.5034154 L31.3429579,30.5034154 L31.3953249,30.4919392 C31.6676959,30.4038937 31.8732551,29.7970065 31.9561783,28.6950526 L31.9561783,28.6950526 L31.9802622,28.28561 C31.9833972,28.2139564 31.9860851,28.1405995 31.9883146,28.065544 L31.9883146,28.065544 L31.9960995,27.5948677 C31.9964498,27.5130376 31.996281,27.4295185 31.9956956,27.3443155 L31.9956956,27.3443155 L31.9859543,26.8129282 L31.963847,26.2413571 L31.9288285,25.6298347 C31.9149432,25.4193611 31.898815,25.2022676 31.8803532,24.9785931 L31.8803532,24.9785931 L31.8726547,24.902 Z" id="路径-10" fill="#CB0007"></path>
                <path d="M24,1.6339746 L5.38045382,12.3839746 C5.07105274,12.5626074 4.88045382,12.8927344 4.88045382,13.25 L4.88045382,34.75 C4.88045382,35.1072656 5.07105274,35.4373926 5.38045382,35.6160254 L24,46.3660254 C24.3094011,46.5446582 24.6905989,46.5446582 25,46.3660254 L43.6195462,35.6160254 C43.9289473,35.4373926 44.1195462,35.1072656 44.1195462,34.75 L44.1195462,13.25 C44.1195462,12.8927344 43.9289473,12.5626074 43.6195462,12.3839746 L25,1.6339746 C24.6905989,1.4553418 24.3094011,1.4553418 24,1.6339746 Z M24.5,3.655 L42.119,13.827 L42.119,34.172 L24.5,44.344 L6.88,34.172 L6.88,13.827 L24.5,3.655 Z" id="多边形" fill="#000000"></path>
            </g>
        </g>
    </g>
</svg>