<?xml version="1.0" encoding="UTF-8"?>
<svg width="48px" height="48px" viewBox="0 0 48 48" version="1.1" xmlns="http://www.w3.org/2000/svg" xmlns:xlink="http://www.w3.org/1999/xlink">
    <title>正常/辅助修饰类/鲲鹏/鲲鹏汇</title>
    <g id="正常/辅助修饰类/鲲鹏/鲲鹏汇" stroke="none" stroke-width="1" fill="none" fill-rule="evenodd">
        <path d="M34.4631043,12.4622773 L35.1014151,13.7082947 L17.8735208,22.5325989 L17.0646475,24.9008203 C16.9694828,25.1791917 16.7125805,25.3645064 16.4259395,25.374035 L16.317313,25.3692067 L15.0345208,25.2115989 L17.8203339,27.1520643 L17.0202945,28.3009493 L11.920527,24.7496673 C11.3500009,24.3523749 11.6488663,23.4801955 12.3045522,23.4745769 L12.4055171,23.480401 L15.9235208,23.9095989 L16.6406662,21.8131221 C16.6876168,21.6757845 16.775758,21.5573215 16.89181,21.4730778 L16.9838749,21.4165508 L34.4631043,12.4622773 Z" id="路径" fill="#C7000B" fill-rule="nonzero"></path>
        <path d="M34.3324039,12.5489747 L16.8426847,27.219281 C16.4878653,27.5169021 16.5146724,28.0708643 16.8965713,28.3328344 L28.2548505,36.1242411 L28.3367316,36.1735007 C28.9415269,36.4883309 29.6244411,35.7985452 29.2483167,35.182311 L25.0675208,28.3345989 L35.3576547,13.4839344 C35.822586,12.8128689 34.9578872,12.0243218 34.3324039,12.5489747 Z M31.2385208,16.9695989 L23.6585067,27.911767 L23.606352,28.0002352 C23.5009977,28.2132659 23.510146,28.4682437 23.6364048,28.6751034 L26.3475208,33.1185989 L18.4475208,27.6995989 L31.2385208,16.9695989 Z" id="路径-34" fill="#000000" fill-rule="nonzero"></path>
        <path d="M32.8143578,41.9859004 C33.0325806,42.4932437 32.7982021,43.0814313 32.2908588,43.2996541 C29.6943253,44.4164971 26.8871364,45 24,45 C21.2846247,45 18.6392568,44.4839126 16.1719905,43.4921865 C15.6595529,43.2862105 15.4111167,42.7038211 15.6170928,42.1913835 C15.8230688,41.6789459 16.4054582,41.4305097 16.9178958,41.6364858 C19.1490152,42.5332918 21.5412745,43 24,43 C26.614135,43 29.1525582,42.4723628 31.5006041,41.4624014 C32.0079474,41.2441786 32.5961349,41.478557 32.8143578,41.9859004 Z M5.95768037,15.3014812 C6.46642576,15.5164151 6.70460702,16.103073 6.48967312,16.6118184 C5.51083405,18.9287161 5,21.4277814 5,24 C5,26.4956575 5.4808476,28.922711 6.40398797,31.1819717 C6.61288735,31.6932245 6.36778142,32.2770233 5.85652855,32.4859227 C5.34527568,32.694822 4.76147694,32.4497161 4.55257756,31.9384633 C3.53173194,29.4400822 3,26.7561926 3,24 C3,21.1591908 3.56491075,18.3955754 4.64734312,15.8334739 C4.86227702,15.3247285 5.44893499,15.0865473 5.95768037,15.3014812 Z M43.5074401,16.2100471 C44.4892395,18.6665554 45,21.298664 45,24 C45,26.6776763 44.4981538,29.2874288 43.5329799,31.7257428 C43.3297109,32.2392602 42.7486407,32.4907663 42.2351232,32.2874973 C41.7216058,32.0842283 41.4700997,31.5031581 41.6733687,30.9896406 C42.5461629,28.7847051 43,26.4246147 43,24 C43,21.5539775 42.5381062,19.1736944 41.6502772,16.9523045 C41.4453085,16.4394631 41.6948886,15.8575631 42.20773,15.6525944 C42.7205713,15.4476257 43.3024714,15.6972058 43.5074401,16.2100471 Z M24,3 C27.1401917,3 30.1844337,3.69039691 32.9631571,5.00369551 C33.4624819,5.23968967 33.6759535,5.83578342 33.4399594,6.33510816 C33.2039652,6.83443291 32.6078714,7.04790453 32.1085467,6.81191037 C29.5956426,5.62424506 26.8430911,5 24,5 C21.2452662,5 18.5751779,5.58599568 16.1248171,6.70355321 C15.6223262,6.93272862 15.0291935,6.71116267 14.8000181,6.2086718 C14.5708426,5.70618093 14.7924086,5.11304822 15.2948995,4.8838728 C18.0045143,3.648075 20.957467,3 24,3 Z" id="形状备份" fill="#000000" fill-rule="nonzero" transform="translate(24.000000, 24.000000) rotate(-315.000000) translate(-24.000000, -24.000000) "></path>
        <path d="M24,1.70811691 C22.2326888,1.70811691 20.8,3.14080571 20.8,4.90811691 C20.8,6.67542811 22.2326888,8.10811691 24,8.10811691 C25.7673112,8.10811691 27.2,6.67542811 27.2,4.90811691 C27.2,3.14080571 25.7673112,1.70811691 24,1.70811691 Z M24,3.10811691 C24.9941125,3.10811691 25.8,3.91400436 25.8,4.90811691 C25.8,5.90222946 24.9941125,6.70811691 24,6.70811691 C23.0058875,6.70811691 22.2,5.90222946 22.2,4.90811691 C22.2,3.91400436 23.0058875,3.10811691 24,3.10811691 Z" id="椭圆形备份-4" fill="#000000" fill-rule="nonzero" transform="translate(24.000000, 4.908117) rotate(-315.000000) translate(-24.000000, -4.908117) "></path>
        <path d="M4.90811691,20.8 C3.14080571,20.8 1.70811691,22.2326888 1.70811691,24 C1.70811691,25.7673112 3.14080571,27.2 4.90811691,27.2 C6.67542811,27.2 8.10811691,25.7673112 8.10811691,24 C8.10811691,22.2326888 6.67542811,20.8 4.90811691,20.8 Z M4.90811691,22.2 C5.90222946,22.2 6.70811691,23.0058875 6.70811691,24 C6.70811691,24.9941125 5.90222946,25.8 4.90811691,25.8 C3.91400436,25.8 3.10811691,24.9941125 3.10811691,24 C3.10811691,23.0058875 3.91400436,22.2 4.90811691,22.2 Z" id="椭圆形备份-5" fill="#000000" fill-rule="nonzero" transform="translate(4.908117, 24.000000) rotate(-315.000000) translate(-4.908117, -24.000000) "></path>
        <path d="M43.0918831,20.8 C41.3245719,20.8 39.8918831,22.2326888 39.8918831,24 C39.8918831,25.7673112 41.3245719,27.2 43.0918831,27.2 C44.8591943,27.2 46.2918831,25.7673112 46.2918831,24 C46.2918831,22.2326888 44.8591943,20.8 43.0918831,20.8 Z M43.0918831,22.2 C44.0859956,22.2 44.8918831,23.0058875 44.8918831,24 C44.8918831,24.9941125 44.0859956,25.8 43.0918831,25.8 C42.0977705,25.8 41.2918831,24.9941125 41.2918831,24 C41.2918831,23.0058875 42.0977705,22.2 43.0918831,22.2 Z" id="椭圆形备份-6" fill="#000000" fill-rule="nonzero" transform="translate(43.091883, 24.000000) rotate(-315.000000) translate(-43.091883, -24.000000) "></path>
        <path d="M24,39.8918831 C22.2326888,39.8918831 20.8,41.3245719 20.8,43.0918831 C20.8,44.8591943 22.2326888,46.2918831 24,46.2918831 C25.7673112,46.2918831 27.2,44.8591943 27.2,43.0918831 C27.2,41.3245719 25.7673112,39.8918831 24,39.8918831 Z M24,41.2918831 C24.9941125,41.2918831 25.8,42.0977705 25.8,43.0918831 C25.8,44.0859956 24.9941125,44.8918831 24,44.8918831 C23.0058875,44.8918831 22.2,44.0859956 22.2,43.0918831 C22.2,42.0977705 23.0058875,41.2918831 24,41.2918831 Z" id="椭圆形备份-7" fill="#000000" fill-rule="nonzero" transform="translate(24.000000, 43.091883) rotate(-315.000000) translate(-24.000000, -43.091883) "></path>
    </g>
</svg>