<svg xmlns="http://www.w3.org/2000/svg" xmlns:xlink="http://www.w3.org/1999/xlink" width="48" height="48" viewBox="0 0 48 48" version="1.1" style="max-width: 200px; max-height: 200px;">
    <title>ic_oth_robot</title>
    <g id="ic_oth_robot" stroke="none" stroke-width="1" fill="none" fill-rule="evenodd">
        <path d="M24.5,4 C26.9852814,4 29,6.01471863 29,8.5 C29,10.6437327 27.50099,12.4373529 25.493976,12.8898543 L25.5,13 L25.5,15 L40,15 C40.5128358,15 40.9355072,15.3860402 40.9932723,15.8833789 L41,16 L41,42 C41,42.5522847 40.5522847,43 40,43 L40,43 L8,43 C7.44771525,43 7,42.5522847 7,42 L7,42 L7,16 C7,15.4477153 7.44771525,15 8,15 L8,15 L23.5,15 L23.5,13 L23.506024,12.8898543 C21.49901,12.4373529 20,10.6437327 20,8.5 C20,6.01471863 22.0147186,4 24.5,4 Z M39,17 L9,17 L9,41 L39,41 L39,17 Z M4,21.5 C4.51283584,21.5 4.93550716,21.8860402 4.99327227,22.3833789 L5,22.5 L5,35.5 C5,36.0522847 4.55228475,36.5 4,36.5 C3.48716416,36.5 3.06449284,36.1139598 3.00672773,35.6166211 L3,35.5 L3,22.5 C3,21.9477153 3.44771525,21.5 4,21.5 Z M44,21.5 C44.5128358,21.5 44.9355072,21.8860402 44.9932723,22.3833789 L45,22.5 L45,35.5 C45,36.0522847 44.5522847,36.5 44,36.5 C43.4871642,36.5 43.0644928,36.1139598 43.0067277,35.6166211 L43,35.5 L43,22.5 C43,21.9477153 43.4477153,21.5 44,21.5 Z M24.5,6 C23.1192881,6 22,7.11928813 22,8.5 C22,9.88071187 23.1192881,11 24.5,11 C25.8807119,11 27,9.88071187 27,8.5 C27,7.11928813 25.8807119,6 24.5,6 Z" id="group1" fill="#000" fill-rule="nonzero"></path>
        <path d="M30.5,34.8 C30.8865993,34.8 31.2,35.1134007 31.2,35.5 C31.2,35.8543827 30.9366564,36.1472582 30.5949859,36.1936098 L30.5,36.2 L17.5,36.2 C17.1134007,36.2 16.8,35.8865993 16.8,35.5 C16.8,35.1456173 17.0633436,34.8527418 17.4050141,34.8063902 L17.5,34.8 L30.5,34.8 Z M17,23.3 C18.4911688,23.3 19.7,24.5088312 19.7,26 C19.7,27.4911688 18.4911688,28.7 17,28.7 C15.5088312,28.7 14.3,27.4911688 14.3,26 C14.3,24.5088312 15.5088312,23.3 17,23.3 Z M31,23.3 C32.4911688,23.3 33.7,24.5088312 33.7,26 C33.7,27.4911688 32.4911688,28.7 31,28.7 C29.5088312,28.7 28.3,27.4911688 28.3,26 C28.3,24.5088312 29.5088312,23.3 31,23.3 Z M17,24.7 C16.2820298,24.7 15.7,25.2820298 15.7,26 C15.7,26.7179702 16.2820298,27.3 17,27.3 C17.7179702,27.3 18.3,26.7179702 18.3,26 C18.3,25.2820298 17.7179702,24.7 17,24.7 Z M31,24.7 C30.2820298,24.7 29.7,25.2820298 29.7,26 C29.7,26.7179702 30.2820298,27.3 31,27.3 C31.7179702,27.3 32.3,26.7179702 32.3,26 C32.3,25.2820298 31.7179702,24.7 31,24.7 Z" id="group2" fill="#cb0007" fill-rule="nonzero"></path>
    </g>
</svg>