<?xml version="1.0" encoding="UTF-8"?>
<svg width="24px" height="24px" viewBox="0 0 24 24" version="1.1" xmlns="http://www.w3.org/2000/svg" xmlns:xlink="http://www.w3.org/1999/xlink">
    <title>add</title>
    <g id="add" stroke="none" stroke-width="1" fill="none" fill-rule="evenodd">
        <path d="M12.125,2.15 C12.4232338,2.15 12.6706468,2.36758961 12.717147,2.65267688 L12.725,2.75 L12.725,21.25 C12.725,21.5813708 12.4563708,21.85 12.125,21.85 C11.8267662,21.85 11.5793532,21.6324104 11.532853,21.3473231 L11.525,21.25 L11.525,12.824 L2.75,12.825 C2.36340068,12.825 2.05,12.5115993 2.05,12.125 C2.05,11.7706173 2.31334362,11.4777418 2.65501415,11.4313902 L2.75,11.425 L11.525,11.424 L11.525,2.75 C11.525,2.41862915 11.7936292,2.15 12.125,2.15 Z M21.25,11.525 C21.5813708,11.525 21.85,11.7936292 21.85,12.125 C21.85,12.4232338 21.6324104,12.6706468 21.3473231,12.717147 L21.25,12.725 L14,12.724 L14,11.525 L21.25,11.525 Z" id="path1" fill="#000000" fill-rule="nonzero"></path>
    </g>
</svg>