<!-- Generated by IcoMoon.io -->
<svg version="1.1" xmlns="http://www.w3.org/2000/svg" width="24" height="24" viewBox="0 0 24 24">
<title>add</title>
<path d="M12.125 2.15c0.298 0 0.546 0.218 0.592 0.503l0.008 0.097v18.5c0 0.331-0.269 0.6-0.6 0.6-0.298 0-0.546-0.218-0.592-0.503l-0.008-0.097v-8.426l-8.775 0.001c-0.387 0-0.7-0.313-0.7-0.7 0-0.354 0.263-0.647 0.605-0.694l0.095-0.006 8.775-0.001v-8.674c0-0.331 0.269-0.6 0.6-0.6zM21.25 11.525c0.331 0 0.6 0.269 0.6 0.6 0 0.298-0.218 0.546-0.503 0.592l-0.097 0.008-7.25-0.001v-1.199h7.25z"></path>
</svg>
