<svg version="1.1" xmlns="http://www.w3.org/2000/svg" width="24" height="24" viewBox="0 0 24 24">
<title>add</title>
<path d="M12.168 2.5c0.286 0 0.524 0.21 0.568 0.485l0.008 0.094v17.843c0 0.32-0.258 0.579-0.576 0.579-0.286 0-0.524-0.21-0.568-0.485l-0.008-0.094-0-8.126-8.42 0.001c-0.371 0-0.672-0.302-0.672-0.675 0-0.342 0.253-0.624 0.581-0.669l0.091-0.006 8.42-0 0-8.366c0-0.32 0.258-0.579 0.576-0.579zM20.924 11.542c0.318 0 0.576 0.259 0.576 0.579 0 0.288-0.209 0.526-0.482 0.571l-0.093 0.008-6.957-0v-1.157h6.957z"></path>
</svg>
