<svg version="1.1" xmlns="http://www.w3.org/2000/svg" width="24" height="24" viewBox="0 0 24 24">
<title>alert</title>
<path d="M12.522 3.134c0.176 0.096 0.32 0.239 0.418 0.413l8.925 15.875c0.288 0.513 0.101 1.16-0.418 1.445-0.16 0.088-0.339 0.134-0.522 0.134h-17.849c-0.594 0-1.075-0.476-1.075-1.063 0-0.181 0.047-0.358 0.135-0.516l8.925-15.875c0.288-0.513 0.943-0.698 1.462-0.413zM12.004 16.955c-0.442 0-0.8 0.358-0.8 0.8s0.358 0.8 0.8 0.8c0.442 0 0.8-0.358 0.8-0.8s-0.358-0.8-0.8-0.8zM11.995 8.816c-0.331 0-0.6 0.269-0.6 0.6v0 6l0.008 0.097c0.046 0.285 0.294 0.503 0.592 0.503 0.331 0 0.6-0.269 0.6-0.6v0-6l-0.008-0.097c-0.046-0.285-0.294-0.503-0.592-0.503z"></path>
</svg>
