<?xml version="1.0" encoding="UTF-8"?>
<svg width="24px" height="24px" viewBox="0 0 24 24" version="1.1" xmlns="http://www.w3.org/2000/svg" xmlns:xlink="http://www.w3.org/1999/xlink">
    <title>alert</title>
    <g id="alert" stroke="none" stroke-width="1" fill="none" fill-rule="evenodd">
        <path d="M12.5220664,3.13390241 C12.6975825,3.23026008 12.8422889,3.37325803 12.9397978,3.54670183 L21.8644978,19.4214932 C22.1528811,19.9344545 21.9658564,20.5813126 21.4467663,20.8662912 C21.2870364,20.9539823 21.1073264,21 20.924602,21 L3.07520215,21 C2.4813844,21 2,20.5242992 2,19.9374925 C2,19.7569254 2.04656754,19.5793372 2.13530637,19.4214932 L11.0600063,3.54670183 C11.3483897,3.03374047 12.0029763,2.84892388 12.5220664,3.13390241 Z M12.0040534,16.9546396 C11.5622256,16.9546396 11.2040534,17.3128118 11.2040534,17.7546396 C11.2040534,18.1964674 11.5622256,18.5546396 12.0040534,18.5546396 C12.4458812,18.5546396 12.8040534,18.1964674 12.8040534,17.7546396 C12.8040534,17.3128118 12.4458812,16.9546396 12.0040534,16.9546396 Z M11.9947303,8.81609191 C11.6633594,8.81609191 11.3947303,9.08472106 11.3947303,9.41609191 L11.3947303,9.41609191 L11.3947303,15.4160919 L11.4025833,15.513415 C11.4490835,15.7985023 11.6964965,16.0160919 11.9947303,16.0160919 C12.3261011,16.0160919 12.5947303,15.7474628 12.5947303,15.4160919 L12.5947303,15.4160919 L12.5947303,9.41609191 L12.5868773,9.3187688 C12.540377,9.03368153 12.2929641,8.81609191 11.9947303,8.81609191 Z" id="path1" fill="#000000"></path>
    </g>
</svg>