<?xml version="1.0" encoding="UTF-8"?>
<svg width="24px" height="24px" viewBox="0 0 24 24" version="1.1" xmlns="http://www.w3.org/2000/svg" xmlns:xlink="http://www.w3.org/1999/xlink">
    <title>appendix</title>
    <g id="appendix" stroke="none" stroke-width="1" fill="none" fill-rule="evenodd">
        <path d="M13.707796,9.67798551 L13.7821667,9.74125045 L14.4008852,10.3599689 C15.7721357,11.7312195 15.9558015,13.8278944 14.7983734,15.134298 L14.6738492,15.266562 L9.5369264,20.4034848 C8.09440149,21.8460097 5.63999912,21.6809154 4.05060967,20.091526 C2.51088864,18.5518049 2.30783519,16.2002895 3.60811831,14.7433531 L3.73865079,14.6052092 L5.72823226,12.6156278 C5.96254684,12.3813132 6.34244583,12.3813132 6.5767604,12.6156278 C6.78764352,12.8265109 6.80873183,13.1553174 6.64002534,13.3897852 L6.5767604,13.4641559 L4.58717893,15.4537374 C3.64061405,16.4003022 3.75485721,18.0987172 4.8991378,19.2429978 C5.9994076,20.3432676 7.6120058,20.4912099 8.57591693,19.6594697 L8.68839826,19.5549567 L13.8253211,14.4180339 C14.5893492,13.6540058 14.5322965,12.3007146 13.6694682,11.3325194 L13.552357,11.208497 L12.9336386,10.5897786 C12.699324,10.355464 12.699324,9.97556502 12.9336386,9.74125045 C13.1445217,9.53036733 13.4733282,9.50927902 13.707796,9.67798551 Z M20.091526,4.05060967 C21.631247,5.59033069 21.8343004,7.94184608 20.5340173,9.39878248 L20.4034848,9.5369264 L18.4139034,11.5265079 C18.1795888,11.7608224 17.7996898,11.7608224 17.5653752,11.5265079 C17.3544921,11.3156248 17.3334038,10.9868183 17.5021103,10.7523505 L17.5653752,10.6779797 L19.5549567,8.68839826 C20.5015216,7.74183338 20.3872784,6.0434184 19.2429978,4.8991378 C18.142728,3.798868 16.5301298,3.65092571 15.5662187,4.48266588 L15.4537374,4.58717893 L10.3168146,9.72410172 C9.55278642,10.4881299 9.60983913,11.841421 10.4726674,12.8096163 L10.5897786,12.9336386 L11.208497,13.552357 C11.4428116,13.7866716 11.4428116,14.1665706 11.208497,14.4008852 C10.9976139,14.6117683 10.6688074,14.6328566 10.4343396,14.4641501 L10.3599689,14.4008852 L9.74125045,13.7821667 C8.36999988,12.4109162 8.18633413,10.3142412 9.34376227,9.0078376 L9.46828643,8.87557358 L14.6052092,3.73865079 C16.0477341,2.29612589 18.5021365,2.46122022 20.091526,4.05060967 Z" id="path1" fill="#000000" fill-rule="nonzero"></path>
    </g>
</svg>