<svg version="1.1" xmlns="http://www.w3.org/2000/svg" width="24" height="24" viewBox="0 0 24 24">
<title>arrow-left</title>
<path d="M9.51 12.004c0-0.331 0.269-0.6 0.6-0.6v0l8.025 0.008c0.285 0.046 0.503 0.294 0.503 0.592 0 0.331-0.269 0.6-0.6 0.6v0l-8.025-0.008c-0.285-0.046-0.503-0.294-0.503-0.592zM5.456 11.659l0.069-0.083 5-5c0.234-0.234 0.614-0.234 0.849 0 0.208 0.208 0.231 0.532 0.069 0.765l-0.069 0.083-4.576 4.576 4.576 4.575c0.208 0.208 0.231 0.532 0.069 0.765l-0.069 0.083c-0.208 0.208-0.532 0.231-0.765 0.069l-0.083-0.069-5-5c-0.208-0.208-0.231-0.532-0.069-0.765z"></path>
</svg>
