<?xml version="1.0" encoding="UTF-8"?>
<svg width="24px" height="24px" viewBox="0 0 24 24" version="1.1" xmlns="http://www.w3.org/2000/svg"
    xmlns:xlink="http://www.w3.org/1999/xlink">
    <title>arrow-right</title>
    <g id="arrow-right" stroke="none" stroke-width="1" fill="none" fill-rule="evenodd">
        <path
            d="M11.989531,9.51608095 C12.3209018,9.51608095 12.589531,9.7847101 12.589531,10.116081 L12.589531,10.116081 L12.589531,18.0440132 L12.581678,18.1413363 C12.5351778,18.4264236 12.2877648,18.6440132 11.989531,18.6440132 C11.6581601,18.6440132 11.389531,18.375384 11.389531,18.0440132 L11.389531,18.0440132 L11.389531,10.116081 L11.397384,10.0187578 C11.4438842,9.73367056 11.6912972,9.51608095 11.989531,9.51608095 Z M12.3351798,5.46229622 L12.4182772,5.53172276 L17.4182772,10.5317228 C17.6525918,10.7660373 17.6525918,11.1459363 17.4182772,11.3802509 C17.2099976,11.5885305 16.8866883,11.6116727 16.6528466,11.4496774 L16.5697491,11.3802509 L11.993531,6.80398683 L7.41827724,11.3802509 C7.20999762,11.5885305 6.88668834,11.6116727 6.65284657,11.4496774 L6.5697491,11.3802509 C6.36146948,11.1719713 6.3383273,10.848662 6.50032256,10.6148202 L6.5697491,10.5317228 L11.5697491,5.53172276 C11.7780287,5.32344314 12.101338,5.30030096 12.3351798,5.46229622 Z"
            id="path1" fill="#000000" fill-rule="nonzero"
            transform="translate(11.994013, 12.000000) rotate(90.000000) translate(-11.994013, -12.000000) "></path>
    </g>
</svg>