<svg version="1.1" xmlns="http://www.w3.org/2000/svg" width="24" height="24" viewBox="0 0 24 24">
<title>arrow-up</title>
<path d="M11.996 9.51c0.331 0 0.6 0.269 0.6 0.6v7.928l-0.008 0.097c-0.046 0.285-0.294 0.503-0.592 0.503-0.331 0-0.6-0.269-0.6-0.6v-7.928l0.008-0.097c0.046-0.285 0.294-0.503 0.592-0.503zM12.341 5.456l0.083 0.069 5 5c0.234 0.234 0.234 0.614 0 0.849-0.208 0.208-0.532 0.231-0.765 0.069l-0.083-0.069-4.576-4.576-4.575 4.576c-0.208 0.208-0.532 0.231-0.765 0.069l-0.083-0.069c-0.208-0.208-0.231-0.532-0.069-0.765l0.069-0.083 5-5c0.208-0.208 0.532-0.231 0.765-0.069z"></path>
</svg>
