<svg version="1.1" xmlns="http://www.w3.org/2000/svg" width="24" height="24" viewBox="0 0 24 24">
<title>backtop</title>
<path d="M17 2.9c0.331 0 0.6 0.269 0.6 0.6 0 0.298-0.218 0.546-0.503 0.592l-0.097 0.008h-10c-0.331 0-0.6-0.269-0.6-0.6 0-0.298 0.218-0.546 0.503-0.592l0.097-0.008h10zM12 5.9c0.009 0 0.019 0 0.028 0.001 0.016 0 0.032 0.002 0.049 0.004s0.031 0.005 0.046 0.008c0.020 0.003 0.040 0.008 0.060 0.014 0.007 0.003 0.013 0.006 0.020 0.008 0.050 0.016 0.098 0.040 0.143 0.071l0.083 0.069 5 5c0.234 0.234 0.234 0.614 0 0.849-0.208 0.208-0.532 0.231-0.765 0.069l-0.083-0.069-3.981-3.98 0.001 12.556-0.008 0.097c-0.046 0.285-0.294 0.503-0.592 0.503-0.331 0-0.6-0.269-0.6-0.6l-0.001-12.548-3.97 3.972c-0.208 0.208-0.532 0.231-0.765 0.069l-0.083-0.069c-0.208-0.208-0.231-0.532-0.069-0.765l0.069-0.083 4.964-4.966c0.078-0.091 0.183-0.158 0.302-0.19 0.004 0 0.008-0.001 0.011-0.002 0.045-0.012 0.093-0.018 0.142-0.018l-0.061 0.004c0.011-0.001 0.021-0.002 0.032-0.003z"></path>
</svg>
