<svg version="1.1" xmlns="http://www.w3.org/2000/svg" width="24" height="24" viewBox="0 0 24 24">
<title>calendar</title>
<path d="M6.862 3.745c0.343 0 0.621 0.289 0.621 0.645 0 0.326-0.234 0.596-0.537 0.639l-0.084 0.006h-2.853c-0.126 0-0.232 0.091-0.259 0.213l-0.007 0.063-0.001 2.168h16.515v-2.168c0-0.131-0.088-0.24-0.205-0.269l-0.061-0.007h-2.883c-0.343 0-0.621-0.289-0.621-0.645 0-0.326 0.234-0.596 0.537-0.639l0.084-0.006h2.883c0.79 0 1.438 0.629 1.504 1.431l0.006 0.135v14.624c0 0.819-0.606 1.491-1.379 1.56l-0.13 0.006h-15.981c-0.79 0-1.438-0.629-1.504-1.431l-0.006-0.135v-14.624c0-0.819 0.606-1.491 1.379-1.56l0.13-0.006h2.853zM20.257 8.767h-16.515l0.001 11.167c0 0.131 0.088 0.24 0.205 0.269l0.061 0.007h15.981c0.126 0 0.232-0.091 0.259-0.213l0.007-0.063v-11.167zM16.439 15.698c0.294 0 0.533 0.247 0.533 0.553 0 0.275-0.193 0.503-0.446 0.545l-0.086 0.007h-8.879c-0.294 0-0.533-0.247-0.533-0.553 0-0.275 0.193-0.503 0.446-0.545l0.086-0.007h8.878zM16.439 12.014c0.294 0 0.533 0.247 0.533 0.553 0 0.275-0.193 0.503-0.446 0.545l-0.086 0.007h-8.879c-0.294 0-0.533-0.247-0.533-0.553 0-0.275 0.193-0.503 0.446-0.545l0.086-0.007h8.878zM8.641 2.5c0.315 0 0.575 0.243 0.616 0.557l0.006 0.087v2.489c0 0.356-0.278 0.645-0.621 0.645-0.315 0-0.575-0.243-0.616-0.557l-0.006-0.087v-2.489c0-0.356 0.278-0.645 0.621-0.645zM15.359 2.5c0.315 0 0.575 0.243 0.616 0.557l0.006 0.087v2.489c0 0.356-0.278 0.645-0.621 0.645-0.315 0-0.575-0.243-0.616-0.557l-0.006-0.087v-2.489c0-0.356 0.278-0.645 0.621-0.645zM13.587 3.745c0.343 0 0.621 0.289 0.621 0.645 0 0.326-0.234 0.596-0.537 0.639l-0.084 0.006h-3.147c-0.343 0-0.621-0.289-0.621-0.645 0-0.326 0.234-0.596 0.537-0.639l0.084-0.006h3.147z"></path>
</svg>
