<!-- Generated by IcoMoon.io -->
<svg version="1.1" xmlns="http://www.w3.org/2000/svg" width="24" height="24" viewBox="0 0 24 24">
<title>calendar</title>
<path d="M6.213 2.922c0.387 0 0.7 0.313 0.7 0.7 0 0.354-0.263 0.647-0.605 0.694l-0.095 0.006h-3.213c-0.142 0-0.261 0.099-0.292 0.231l-0.008 0.069v2.354h18.6v-2.354c0-0.142-0.099-0.261-0.231-0.292l-0.069-0.008h-3.247c-0.387 0-0.7-0.313-0.7-0.7 0-0.354 0.263-0.647 0.605-0.694l0.095-0.006h3.247c0.889 0 1.619 0.683 1.694 1.553l0.006 0.147v15.878c0 0.889-0.683 1.619-1.553 1.694l-0.147 0.006h-18c-0.889 0-1.619-0.683-1.694-1.553l-0.006-0.147v-15.878c0-0.889 0.683-1.619 1.553-1.694l0.147-0.006h3.213zM21.3 8.375h-18.6v12.125c0 0.142 0.099 0.261 0.231 0.292l0.069 0.008h18c0.142 0 0.261-0.099 0.292-0.231l0.008-0.069v-12.125zM17 15.9c0.331 0 0.6 0.269 0.6 0.6 0 0.298-0.218 0.546-0.503 0.592l-0.097 0.008h-10c-0.331 0-0.6-0.269-0.6-0.6 0-0.298 0.218-0.546 0.503-0.592l0.097-0.008h10zM17 11.9c0.331 0 0.6 0.269 0.6 0.6 0 0.298-0.218 0.546-0.503 0.592l-0.097 0.008h-10c-0.331 0-0.6-0.269-0.6-0.6 0-0.298 0.218-0.546 0.503-0.592l0.097-0.008h10zM8.216 1.57c0.354 0 0.647 0.263 0.694 0.605l0.006 0.095v2.703c0 0.387-0.313 0.7-0.7 0.7-0.354 0-0.647-0.263-0.694-0.605l-0.006-0.095v-2.703c0-0.387 0.313-0.7 0.7-0.7zM15.784 1.57c0.354 0 0.647 0.263 0.694 0.605l0.006 0.095v2.703c0 0.387-0.313 0.7-0.7 0.7-0.354 0-0.647-0.263-0.694-0.605l-0.006-0.095v-2.703c0-0.387 0.313-0.7 0.7-0.7zM13.787 2.922c0.387 0 0.7 0.313 0.7 0.7 0 0.354-0.263 0.647-0.605 0.694l-0.095 0.006h-3.544c-0.387 0-0.7-0.313-0.7-0.7 0-0.354 0.263-0.647 0.605-0.694l0.095-0.006h3.544z"></path>
</svg>
