<?xml version="1.0" encoding="UTF-8"?>
<svg width="24px" height="24px" viewBox="0 0 24 24" version="1.1" xmlns="http://www.w3.org/2000/svg" xmlns:xlink="http://www.w3.org/1999/xlink">
    <title>chevron-left</title>
    <defs>
        <path d="M9.2482689,5.78262629 L9.28033009,5.81288695 L14.2300776,10.7626344 C14.8992572,11.4318141 14.9131984,12.5081067 14.2719013,13.1942493 L14.2300776,13.2375081 L9.28033009,18.1872556 C9.15145707,18.3161286 8.98735263,18.3882975 8.81902041,18.4037623 L8.7730301,18.4065741 L8.7269699,18.4065741 C8.54277571,18.4009505 8.36025866,18.3278444 8.21966991,18.1872556 C7.93723717,17.9048229 7.92715028,17.4531761 8.18940926,17.1586566 L8.21966991,17.1265954 L12.815864,12.5304014 C13.0982967,12.2479686 13.1083836,11.7963218 12.8461246,11.5018024 L12.815864,11.4697412 L8.21966991,6.87354712 C7.9267767,6.5806539 7.9267767,6.10578016 8.21966991,5.81288695 C8.36088629,5.67167057 8.54440617,5.59854066 8.72943689,5.59349722 L8.77570243,5.59365483 C8.94528507,5.59943377 9.11328081,5.66242426 9.2482689,5.78262629 Z" id="path-1"></path>
    </defs>
    <g id="chevron-left" stroke="none" stroke-width="1" fill="none" fill-rule="evenodd">
        <mask id="mask-2" fill="white">
            <use xlink:href="#path-1"></use>
        </mask>
        <use id="path1" fill="#000000" fill-rule="nonzero" transform="translate(11.371320, 12.000036) scale(-1, 1) translate(-11.371320, -12.000036) " xlink:href="#path-1"></use>
    </g>
</svg>