<?xml version="1.0" encoding="UTF-8"?>
<svg width="24px" height="24px" viewBox="0 0 24 24" version="1.1" xmlns="http://www.w3.org/2000/svg" xmlns:xlink="http://www.w3.org/1999/xlink">
    <title>chevron-right</title>
    <defs>
        <path d="M10.2482689,6.18912907 L10.2803301,6.21938972 L15.2300776,11.1691372 C15.8992572,11.8383168 15.9131984,12.9146094 15.2719013,13.6007521 L15.2300776,13.6440109 L10.2803301,18.5937584 C10.1514571,18.7226314 9.98735263,18.7948003 9.81902041,18.8102651 L9.7730301,18.8130768 L9.7269699,18.8130768 C9.54277571,18.8074533 9.36025866,18.7343471 9.21966991,18.5937584 C8.93723717,18.3113256 8.92715028,17.8596789 9.18940926,17.5651594 L9.21966991,17.5330982 L13.815864,12.9369041 C14.0982967,12.6544714 14.1083836,12.2028246 13.8461246,11.9083052 L13.815864,11.876244 L9.21966991,7.28004989 C8.9267767,6.98715668 8.9267767,6.51228294 9.21966991,6.21938972 C9.36088629,6.07817335 9.54440617,6.00504344 9.72943689,6 L9.77570243,6.00015761 C9.94528507,6.00593655 10.1132808,6.06892704 10.2482689,6.18912907 Z" id="path-1"></path>
    </defs>
    <g id="chevron-right" stroke="none" stroke-width="1" fill="none" fill-rule="evenodd">
        <mask id="mask-2" fill="white">
            <use xlink:href="#path-1"></use>
        </mask>
        <use id="path1" fill="#000000" transform="translate(12.371320, 12.406538) scale(1, -1) translate(-12.371320, -12.406538) " xlink:href="#path-1"></use>
    </g>
</svg>