<!-- Generated by IcoMoon.io -->
<svg version="1.1" xmlns="http://www.w3.org/2000/svg" width="24" height="24" viewBox="0 0 24 24">
<title>chevron-right</title>
<path d="M10.248 18.624l0.032-0.030 4.95-4.95c0.669-0.669 0.683-1.745 0.042-2.432l-0.042-0.043-4.95-4.95c-0.129-0.129-0.293-0.201-0.461-0.217l-0.046-0.003h-0.046c-0.184 0.006-0.367 0.079-0.507 0.219-0.282 0.282-0.293 0.734-0.030 1.029l0.030 0.032 4.596 4.596c0.282 0.282 0.293 0.734 0.030 1.029l-0.030 0.032-4.596 4.596c-0.293 0.293-0.293 0.768 0 1.061 0.141 0.141 0.325 0.214 0.51 0.219l0.046-0c0.17-0.006 0.338-0.069 0.473-0.189z"></path>
</svg>
