<!-- Generated by IcoMoon.io -->
<svg version="1.1" xmlns="http://www.w3.org/2000/svg" width="24" height="24" viewBox="0 0 24 24">
<title>chevron-up</title>
<path d="M18.214 14.123l-0.030-0.032-4.95-4.95c-0.669-0.669-1.745-0.683-2.432-0.042l-0.043 0.042-4.95 4.95c-0.129 0.129-0.201 0.293-0.217 0.461l-0.003 0.046v0.046c0.006 0.184 0.079 0.367 0.219 0.507 0.282 0.282 0.734 0.293 1.029 0.030l0.032-0.030 4.596-4.596c0.282-0.282 0.734-0.293 1.029-0.030l0.032 0.030 4.596 4.596c0.293 0.293 0.768 0.293 1.061 0 0.141-0.141 0.214-0.325 0.219-0.51l-0-0.046c-0.006-0.17-0.069-0.338-0.189-0.473z"></path>
</svg>
