<?xml version="1.0" encoding="UTF-8"?>
<svg width="24px" height="24px" viewBox="0 0 24 24" version="1.1" xmlns="http://www.w3.org/2000/svg" xmlns:xlink="http://www.w3.org/1999/xlink">
    <title>chevron-down</title>
    <defs>
        <path d="M9.87348697,5.78259065 L9.90554816,5.8128513 L14.8552956,10.7625988 C15.5244753,11.4317784 15.5384165,12.508071 14.8971194,13.1942137 L14.8552956,13.2374725 L9.90554816,18.18722 C9.77667514,18.316093 9.6125707,18.3882619 9.44423848,18.4037266 L9.39824817,18.4065384 L9.35218798,18.4065384 C9.16799379,18.4009149 8.98547673,18.3278087 8.84488799,18.18722 C8.56245524,17.9047872 8.55236836,17.4531405 8.81462734,17.158621 L8.84488799,17.1265598 L13.4410821,12.5303657 C13.7235148,12.247933 13.7336017,11.7962862 13.4713427,11.5017667 L13.4410821,11.4697056 L8.84488799,6.87351148 C8.55199477,6.58061826 8.55199477,6.10574452 8.84488799,5.8128513 C8.98610436,5.67163493 9.16962424,5.59850502 9.35465496,5.59346158 L9.40092051,5.59361919 C9.57050315,5.59939813 9.73849888,5.66238862 9.87348697,5.78259065 Z" id="path-1"></path>
    </defs>
    <g id="chevron-down" stroke="none" stroke-width="1" fill="none" fill-rule="evenodd">
        <mask id="mask-2" fill="white">
            <use xlink:href="#path-1"></use>
        </mask>
        <use id="path1" fill="#000000" transform="translate(11.996538, 12.000000) scale(-1, -1) rotate(-90.000000) translate(-11.996538, -12.000000) " xlink:href="#path-1"></use>
    </g>
</svg>