
<svg version="1.1" xmlns="http://www.w3.org/2000/svg" width="24" height="24" viewBox="0 0 24 24">
<title>danger</title>
<path d="M12 3c4.971 0 9 4.029 9 9s-4.029 9-9 9c-4.971 0-9-4.029-9-9s4.029-9 9-9zM13.767 13.060c-0.195-0.195-0.512-0.195-0.707 0v0l-0.058 0.069c-0.135 0.195-0.116 0.464 0.058 0.638v0l2.268 2.268 0.032 0.029c0.196 0.166 0.49 0.156 0.675-0.029s0.195-0.479 0.029-0.675v0l-0.029-0.032zM8.641 7.936c-0.196-0.166-0.49-0.156-0.675 0.029s-0.195 0.479-0.029 0.675v0l0.029 0.032 3.328 3.327-3.357 3.36c-0.166 0.196-0.156 0.49 0.029 0.675 0.195 0.195 0.512 0.195 0.707 0v0l7.392-7.394c0.166-0.196 0.156-0.49-0.029-0.675-0.195-0.195-0.512-0.195-0.707 0v0l-3.328 3.328-3.327-3.328z"></path>
</svg>
