<svg version="1.1" xmlns="http://www.w3.org/2000/svg" width="24" height="24" viewBox="0 0 24 24">
<title>danger</title>
<path d="M12 1.5c5.799 0 10.5 4.701 10.5 10.5s-4.701 10.5-10.5 10.5c-5.799 0-10.5-4.701-10.5-10.5s4.701-10.5 10.5-10.5zM7.877 7.883c-0.219 0.219-0.243 0.558-0.073 0.804l0.073 0.087 3.237 3.236-3.228 3.229-0.073 0.087c-0.17 0.246-0.146 0.585 0.073 0.804 0.246 0.246 0.645 0.246 0.891 0l7.35-7.35 0.073-0.087c0.17-0.246 0.146-0.585-0.073-0.804-0.246-0.246-0.645-0.246-0.891 0l-3.231 3.23-3.237-3.236c-0.246-0.246-0.645-0.246-0.891 0zM12.967 12.973c-0.219 0.219-0.243 0.558-0.073 0.804l0.073 0.087 2.26 2.26c0.246 0.246 0.645 0.246 0.891 0 0.219-0.219 0.243-0.558 0.073-0.804l-0.073-0.087-2.26-2.26c-0.246-0.246-0.645-0.246-0.891 0z"></path>
</svg>
