<svg version="1.1" xmlns="http://www.w3.org/2000/svg" width="24" height="24" viewBox="0 0 24 24">
<title>delete</title>
<path d="M19.785 4.776c0.395 0 0.715 0.318 0.715 0.71 0 0.349-0.253 0.638-0.586 0.699l-0.129 0.011-13.182-0.001 0.001 13.459c0 0.202 0.141 0.371 0.331 0.415l0.098 0.011h10.218c0.203 0 0.373-0.14 0.418-0.328l0.011-0.098v-11.087c0-0.392 0.32-0.71 0.715-0.71 0.351 0 0.643 0.251 0.703 0.582l0.012 0.128v11.087c0 0.956-0.731 1.742-1.669 1.836l-0.19 0.010h-10.218c-0.962 0-1.754-0.726-1.849-1.657l-0.010-0.189-0.001-13.459-0.958 0.001c-0.395 0-0.715-0.318-0.715-0.71 0-0.349 0.253-0.638 0.586-0.699l0.129-0.011h15.57zM10.162 9.584c0.351 0 0.643 0.251 0.703 0.582l0.012 0.128v6.137c0 0.392-0.32 0.71-0.715 0.71-0.351 0-0.643-0.251-0.703-0.582l-0.012-0.128v-6.137c0-0.392 0.32-0.71 0.715-0.71zM14.452 9.584c0.351 0 0.643 0.251 0.703 0.582l0.012 0.128v6.137c0 0.392-0.32 0.71-0.715 0.71-0.351 0-0.643-0.251-0.703-0.582l-0.012-0.128v-6.137c0-0.392 0.32-0.71 0.715-0.71zM14.125 2.5c0.395 0 0.715 0.318 0.715 0.71 0 0.349-0.253 0.638-0.586 0.699l-0.129 0.011h-4.323c-0.395 0-0.715-0.318-0.715-0.71 0-0.349 0.253-0.638 0.586-0.699l0.129-0.011h4.323z"></path>
</svg>
