<svg version="1.1" xmlns="http://www.w3.org/2000/svg" width="24" height="24" viewBox="0 0 24 24">
<title>delete</title>
<path d="M20.192 4.34c0.414 0 0.75 0.336 0.75 0.75 0 0.368-0.265 0.674-0.615 0.738l-0.135 0.012-13.827-0 0 14.218c0 0.213 0.148 0.391 0.347 0.438l0.103 0.012h10.719c0.213 0 0.391-0.148 0.438-0.347l0.012-0.103v-11.712c0-0.414 0.336-0.75 0.75-0.75 0.368 0 0.674 0.265 0.738 0.615l0.012 0.135v11.712c0 1.010-0.767 1.84-1.751 1.94l-0.199 0.010h-10.719c-1.010 0-1.84-0.767-1.94-1.751l-0.010-0.199-0-14.218-1.006 0c-0.414 0-0.75-0.336-0.75-0.75 0-0.368 0.265-0.674 0.615-0.738l0.135-0.012h16.333zM10.097 9.419c0.368 0 0.674 0.265 0.738 0.615l0.012 0.135v6.484c0 0.414-0.336 0.75-0.75 0.75-0.368 0-0.674-0.265-0.738-0.615l-0.012-0.135v-6.484c0-0.414 0.336-0.75 0.75-0.75zM14.597 9.419c0.368 0 0.674 0.265 0.738 0.615l0.012 0.135v6.484c0 0.414-0.336 0.75-0.75 0.75-0.368 0-0.674-0.265-0.738-0.615l-0.012-0.135v-6.484c0-0.414 0.336-0.75 0.75-0.75zM14.254 1.936c0.414 0 0.75 0.336 0.75 0.75 0 0.368-0.265 0.674-0.615 0.738l-0.135 0.012h-4.535c-0.414 0-0.75-0.336-0.75-0.75 0-0.368 0.265-0.674 0.615-0.738l0.135-0.012h4.535z"></path>
</svg>
