
<svg version="1.1" xmlns="http://www.w3.org/2000/svg" width="24" height="24" viewBox="0 0 24 24">
<title>double-arrow-left</title>
<path d="M16.995 7.136c-0.273-0.273-0.717-0.273-0.99 0v0l-3.645 3.645-0.099 0.108c-0.563 0.668-0.53 1.667 0.099 2.296v0l3.679 3.679 0.072 0.063c0.274 0.209 0.668 0.188 0.918-0.063 0.273-0.273 0.273-0.717 0-0.99v0l-3.679-3.679-0.043-0.054c-0.072-0.116-0.057-0.27 0.043-0.37v0l3.645-3.645 0.063-0.072c0.209-0.274 0.188-0.668-0.063-0.918zM11.693 7.136c-0.273-0.273-0.717-0.273-0.99 0v0l-3.645 3.645-0.099 0.108c-0.563 0.668-0.53 1.667 0.099 2.296v0l3.679 3.679 0.072 0.063c0.274 0.209 0.668 0.188 0.918-0.063 0.273-0.273 0.273-0.717 0-0.99v0l-3.679-3.679-0.043-0.054c-0.072-0.116-0.057-0.27 0.043-0.37v0l3.645-3.645 0.063-0.072c0.209-0.274 0.188-0.668-0.063-0.918z"></path>
</svg>
