<svg version="1.1" xmlns="http://www.w3.org/2000/svg" width="24" height="24" viewBox="0 0 24 24">
<title>error</title>
<path d="M12 2c5.523 0 10 4.477 10 10s-4.477 10-10 10c-5.523 0-10-4.477-10-10s4.477-10 10-10zM8.839 8.010c-0.234-0.162-0.557-0.139-0.765 0.069s-0.231 0.532-0.069 0.765v0l0.069 0.083 3.082 3.083-3.074 3.074-0.069 0.083c-0.162 0.234-0.139 0.557 0.069 0.765 0.234 0.234 0.614 0.234 0.849 0v0l7-7 0.069-0.083c0.162-0.234 0.139-0.557-0.069-0.765-0.234-0.234-0.614-0.234-0.849 0v0l-3.077 3.077-3.083-3.082zM13.686 12.857c-0.234-0.162-0.557-0.139-0.765 0.069s-0.231 0.532-0.069 0.765v0l0.069 0.083 2.152 2.152 0.083 0.069c0.234 0.162 0.557 0.139 0.765-0.069s0.231-0.532 0.069-0.765v0l-0.069-0.083-2.152-2.152z"></path>
</svg>
