<svg version="1.1" xmlns="http://www.w3.org/2000/svg" width="24" height="24" viewBox="0 0 24 24">
<title>eye-off</title>
<path d="M19.524 16.034c1.464-1.439 2.476-3.051 2.476-4.029 0-2.688-5.414-7.505-10-7.505-0.806 0-1.613 0.122-2.414 0.357-0.354 0.104-0.559 0.481-0.458 0.843s0.47 0.572 0.824 0.468c0.685-0.2 1.37-0.304 2.047-0.304 3.887 0 8.667 4.252 8.667 6.141 0 0.5-0.844 1.844-2.066 3.045-0.265 0.261-0.274 0.693-0.019 0.964s0.677 0.28 0.943 0.019zM12.028 19.5c1.618 0 3.231-0.491 4.761-1.373l0.626 0.687c0.251 0.276 0.673 0.291 0.942 0.034 0.24-0.228 0.278-0.594 0.107-0.866l-0.074-0.097-11.991-13.167c-0.251-0.276-0.673-0.291-0.942-0.034-0.24 0.228-0.278 0.594-0.107 0.866l0.074 0.097 0.798 0.876c-2.327 1.651-4.223 4.129-4.223 5.481 0 2.681 5.442 7.497 10.028 7.497zM12.028 18.136c-3.89 0-8.695-4.252-8.695-6.133 0-0.823 1.734-3.048 3.809-4.471l2.182 2.398-0.082 0.114c-0.608 0.893-0.76 2.046-0.375 3.103 0.644 1.769 2.568 2.693 4.298 2.063 0.236-0.086 0.459-0.197 0.666-0.332l2.020 2.219c-1.253 0.673-2.546 1.039-3.822 1.039zM10.119 12.691c-0.213-0.584-0.152-1.216 0.143-1.731l2.629 2.887c-0.062 0.031-0.127 0.058-0.193 0.082-1.038 0.378-2.193-0.177-2.579-1.238z"></path>
</svg>
