<svg version="1.1" xmlns="http://www.w3.org/2000/svg" width="24" height="24" viewBox="0 0 24 24">
<title>eye</title>
<path d="M12.028 4.5c1.96 0 3.908 0.719 5.7 1.971 0.304 0.212 0.382 0.637 0.174 0.948s-0.623 0.391-0.927 0.178c-1.584-1.107-3.281-1.733-4.947-1.733-3.89 0-8.695 4.252-8.695 6.133 0 1.888 4.78 6.14 8.667 6.14s8.667-4.252 8.667-6.141c0-0.487-0.81-1.792-1.995-2.975-0.263-0.263-0.269-0.695-0.011-0.964s0.679-0.275 0.943-0.012c1.423 1.42 2.397 2.991 2.397 3.951 0 2.688-5.414 7.505-10 7.505s-10-4.817-10-7.503c0-2.681 5.442-7.497 10.028-7.497zM11.986 8.274c2.025 0 3.667 1.679 3.667 3.75s-1.642 3.75-3.667 3.75c-2.025 0-3.667-1.679-3.667-3.75s1.642-3.75 3.667-3.75zM11.986 9.637c-1.289 0-2.333 1.068-2.333 2.386s1.045 2.386 2.333 2.386c1.289 0 2.333-1.068 2.333-2.386s-1.045-2.386-2.333-2.386z"></path>
</svg>
