<svg version="1.1" xmlns="http://www.w3.org/2000/svg" width="24" height="24" viewBox="0 0 24 24">
<title>file</title>
<path d="M14.277 2c0.183 0 0.358 0.071 0.486 0.196l4.541 4.434c0.125 0.122 0.195 0.287 0.195 0.458v8.996c0 0.361-0.305 0.654-0.682 0.654s-0.682-0.293-0.682-0.654l-0-8.104-3.214 0c-0.915 0-1.656-0.711-1.656-1.589l-0-3.085-7.11 0c-0.138 0-0.254 0.092-0.284 0.216l-0.008 0.064v16.822c0 0.155 0.131 0.28 0.292 0.28h11.688c0.161 0 0.292-0.126 0.292-0.28v-2.109c0-0.361 0.305-0.654 0.682-0.654s0.682 0.293 0.682 0.654v2.109c0 0.877-0.741 1.589-1.656 1.589h-11.688c-0.915 0-1.656-0.711-1.656-1.589v-16.822c0-0.877 0.741-1.589 1.656-1.589h8.122zM15.441 16.486c0.377 0 0.682 0.293 0.682 0.654s-0.305 0.654-0.682 0.654h-7.259c-0.377 0-0.682-0.293-0.682-0.654s0.305-0.654 0.682-0.654h7.259zM13.461 12.748c0.377 0 0.682 0.293 0.682 0.654s-0.305 0.654-0.682 0.654h-5.279c-0.377 0-0.682-0.293-0.682-0.654s0.305-0.654 0.682-0.654h5.279zM11.812 9.009c0.377 0 0.682 0.293 0.682 0.654s-0.305 0.654-0.682 0.654h-3.629c-0.377 0-0.682-0.293-0.682-0.654s0.305-0.654 0.682-0.654h3.629zM14.629 3.932l0.001 2.461c0 0.155 0.131 0.28 0.292 0.28l2.513-0.001-2.806-2.74z"></path>
</svg>
