<!-- Generated by IcoMoon.io -->
<svg version="1.1" xmlns="http://www.w3.org/2000/svg" width="24" height="24" viewBox="0 0 24 24">
<title>filter</title>
<path d="M18.994 2.4c0.894 0 1.606 0.749 1.606 1.659 0 0.311-0.085 0.616-0.244 0.879l-0.086 0.128-1.64 2.221c-0.197 0.267-0.573 0.323-0.839 0.126-0.24-0.177-0.31-0.499-0.178-0.756l0.051-0.083 1.64-2.221c0.061-0.082 0.094-0.186 0.094-0.294 0-0.231-0.149-0.414-0.335-0.452l-0.071-0.007h-13.989c-0.084 0-0.167 0.030-0.237 0.087-0.166 0.136-0.214 0.386-0.122 0.584l0.048 0.081 5.566 7.537c0.182 0.247 0.293 0.54 0.322 0.846l0.007 0.154 0.020 5.465c0 0.121 0.043 0.234 0.115 0.318l0.059 0.057 2.018 1.589c0.069 0.054 0.15 0.083 0.232 0.082 0.193-0.001 0.363-0.159 0.398-0.377l0.006-0.084-0.027-7.040c-0.001-0.313 0.083-0.62 0.243-0.884l0.086-0.129 2.388-3.233c0.197-0.267 0.573-0.323 0.839-0.126 0.24 0.177 0.31 0.499 0.178 0.756l-0.051 0.083-2.388 3.233c-0.046 0.062-0.076 0.136-0.088 0.215l-0.006 0.080 0.027 7.040c0.003 0.909-0.705 1.662-1.599 1.665-0.304 0.001-0.6-0.087-0.856-0.251l-0.124-0.088-2.018-1.589c-0.354-0.279-0.577-0.693-0.623-1.143l-0.009-0.17-0.020-5.465c-0-0.080-0.019-0.158-0.054-0.227l-0.040-0.065-5.566-7.537c-0.53-0.718-0.408-1.744 0.279-2.307 0.243-0.199 0.536-0.32 0.843-0.351l0.155-0.008h13.989z"></path>
</svg>
