<svg version="1.1" xmlns="http://www.w3.org/2000/svg" width="24" height="24" viewBox="0 0 24 24">
<title>info</title>
<path d="M12 1.5c5.798 0 10.5 4.702 10.5 10.5s-4.702 10.5-10.5 10.5c-5.798 0-10.5-4.702-10.5-10.5s4.702-10.5 10.5-10.5zM12 10.5c-0.414 0-0.75 0.336-0.75 0.75v6c0 0.414 0.336 0.75 0.75 0.75s0.75-0.336 0.75-0.75v-6c0-0.414-0.336-0.75-0.75-0.75zM12 6.75c-0.621 0-1.125 0.504-1.125 1.125s0.504 1.125 1.125 1.125c0.621 0 1.125-0.504 1.125-1.125s-0.504-1.125-1.125-1.125z"></path>
</svg>
