<svg version="1.1" xmlns="http://www.w3.org/2000/svg" width="24" height="24" viewBox="0 0 24 24">
<title>info2</title>
<path d="M12 2c1.038 0 2.056 0.159 3.027 0.467 0.344 0.109 0.535 0.477 0.426 0.821s-0.477 0.535-0.821 0.426c-0.843-0.268-1.728-0.405-2.632-0.405-4.8 0-8.692 3.891-8.692 8.692s3.891 8.692 8.692 8.692c4.8 0 8.692-3.891 8.692-8.692 0-2.783-1.316-5.346-3.507-6.977-0.29-0.216-0.35-0.626-0.134-0.915s0.626-0.35 0.915-0.134c2.519 1.875 4.034 4.825 4.034 8.026 0 5.523-4.477 10-10 10s-10-4.477-10-10c0-5.523 4.477-10 10-10zM12 8.729c0.355 0 0.648 0.264 0.695 0.606l0.006 0.095v7.477c0 0.387-0.314 0.701-0.701 0.701-0.355 0-0.648-0.264-0.695-0.606l-0.006-0.095v-7.477c0-0.387 0.314-0.701 0.701-0.701zM12 6.159c0.516 0 0.935 0.418 0.935 0.935s-0.418 0.935-0.935 0.935c-0.516 0-0.935-0.418-0.935-0.935s0.418-0.935 0.935-0.935z"></path>
</svg>
