<!-- Generated by IcoMoon.io -->
<svg version="1.1" xmlns="http://www.w3.org/2000/svg" width="24" height="24" viewBox="0 0 24 24">
<title>link</title>
<path d="M13.708 9.678l0.074 0.063 0.619 0.619c1.371 1.371 1.555 3.468 0.397 4.774l-0.125 0.132-5.137 5.137c-1.443 1.443-3.897 1.277-5.486-0.312-1.54-1.54-1.743-3.891-0.442-5.348l0.131-0.138 1.99-1.99c0.234-0.234 0.614-0.234 0.849 0 0.211 0.211 0.232 0.54 0.063 0.774l-0.063 0.074-1.99 1.99c-0.947 0.947-0.832 2.645 0.312 3.789 1.1 1.1 2.713 1.248 3.677 0.416l0.112-0.105 5.137-5.137c0.764-0.764 0.707-2.117-0.156-3.086l-0.117-0.124-0.619-0.619c-0.234-0.234-0.234-0.614 0-0.849 0.211-0.211 0.54-0.232 0.774-0.063zM20.092 4.051c1.54 1.54 1.743 3.891 0.443 5.348l-0.131 0.138-1.99 1.99c-0.234 0.234-0.614 0.234-0.849 0-0.211-0.211-0.232-0.54-0.063-0.774l0.063-0.074 1.99-1.99c0.947-0.947 0.832-2.645-0.312-3.789-1.1-1.1-2.713-1.248-3.677-0.416l-0.112 0.105-5.137 5.137c-0.764 0.764-0.707 2.117 0.156 3.086l0.117 0.124 0.619 0.619c0.234 0.234 0.234 0.614 0 0.849-0.211 0.211-0.54 0.232-0.774 0.063l-0.074-0.063-0.619-0.619c-1.371-1.371-1.555-3.468-0.397-4.774l0.125-0.132 5.137-5.137c1.443-1.443 3.897-1.277 5.486 0.312z"></path>
</svg>
