<svg version="1.1" xmlns="http://www.w3.org/2000/svg" width="24" height="24" viewBox="0 0 24 24">
<title>link</title>
<path d="M13.669 9.83l0.082 0.072 0.516 0.508c1.288 1.268 1.35 3.291 0.108 4.514l-4.7 4.627c-1.372 1.351-3.636 1.283-5.064-0.122-1.433-1.411-1.502-3.659-0.123-5.016l1.82-1.792c0.275-0.271 0.719-0.268 0.99 0.008s0.268 0.719-0.008 0.99l-1.82 1.792c-0.807 0.795-0.766 2.145 0.124 3.021 0.895 0.881 2.286 0.923 3.099 0.122l4.7-4.627c0.671-0.66 0.636-1.786-0.108-2.518l-0.526-0.517c-0.275-0.271-0.279-0.714-0.008-0.99 0.249-0.253 0.642-0.276 0.918-0.070zM19.389 4.571c1.433 1.411 1.502 3.659 0.123 5.016l-1.82 1.792c-0.275 0.271-0.719 0.268-0.99-0.008s-0.268-0.719 0.008-0.99l1.82-1.792c0.807-0.795 0.766-2.145-0.124-3.021-0.895-0.881-2.286-0.923-3.099-0.122l-4.7 4.627c-0.671 0.66-0.636 1.786 0.108 2.518l0.526 0.518c0.275 0.271 0.279 0.714 0.008 0.99-0.249 0.253-0.642 0.276-0.918 0.070l-0.082-0.072-0.516-0.508c-1.288-1.268-1.35-3.291-0.108-4.514l4.7-4.627c1.372-1.351 3.636-1.283 5.064 0.122z"></path>
</svg>
