<svg version="1.1" xmlns="http://www.w3.org/2000/svg" width="24" height="24" viewBox="0 0 24 24">
<title>loading</title>
<path opacity="0.4" d="M13.118 3.264c0 0.698-0.559 1.264-1.249 1.264s-1.249-0.566-1.249-1.264c0-0.698 0.559-1.264 1.249-1.264s1.249 0.566 1.249 1.264z"></path>
<path opacity="0.2" d="M17.559 4.512c0 0.698-0.559 1.264-1.249 1.264s-1.249-0.566-1.249-1.264c0-0.698 0.559-1.264 1.249-1.264s1.249 0.566 1.249 1.264z"></path>
<path opacity="0.2" d="M20.766 7.507c0 0.698-0.559 1.264-1.249 1.264s-1.249-0.566-1.249-1.264c0-0.698 0.559-1.264 1.249-1.264s1.249 0.566 1.249 1.264z"></path>
<path opacity="0.2" d="M22 12c0 0.698-0.559 1.264-1.249 1.264s-1.249-0.566-1.249-1.264c0-0.698 0.559-1.264 1.249-1.264s1.249 0.566 1.249 1.264z"></path>
<path opacity="0.4" d="M20.766 16.243c0 0.698-0.559 1.264-1.249 1.264s-1.249-0.566-1.249-1.264c0-0.698 0.559-1.264 1.249-1.264s1.249 0.566 1.249 1.264z"></path>
<path opacity="0.8" d="M5.716 7.507c0 0.698-0.559 1.264-1.249 1.264s-1.249-0.566-1.249-1.264c0-0.698 0.559-1.264 1.249-1.264s1.249 0.566 1.249 1.264z"></path>
<path opacity="0.6" d="M8.924 4.512c0 0.698-0.559 1.264-1.249 1.264s-1.249-0.566-1.249-1.264c0-0.698 0.559-1.264 1.249-1.264s1.249 0.566 1.249 1.264z"></path>
<path opacity="0.6" d="M17.559 19.738c0 0.698-0.559 1.264-1.249 1.264s-1.249-0.566-1.249-1.264c0-0.698 0.559-1.264 1.249-1.264s1.249 0.566 1.249 1.264z"></path>
<path opacity="0.8" d="M13.365 20.736c0 0.698-0.559 1.264-1.249 1.264s-1.249-0.566-1.249-1.264c0-0.698 0.559-1.264 1.249-1.264s1.249 0.566 1.249 1.264z"></path>
<path opacity="0.9" d="M9.155 19.738c0 0.827-0.663 1.498-1.48 1.498s-1.48-0.671-1.48-1.498c0-0.827 0.663-1.498 1.48-1.498s1.48 0.671 1.48 1.498z"></path>
<path opacity="0.9" d="M4.714 12.125c0 0.758-0.608 1.373-1.357 1.373s-1.357-0.615-1.357-1.373c0-0.758 0.608-1.373 1.357-1.373s1.357 0.615 1.357 1.373z"></path>
<path d="M6.194 16.368c0 0.896-0.718 1.622-1.604 1.622s-1.604-0.726-1.604-1.622c0-0.896 0.718-1.622 1.604-1.622s1.604 0.726 1.604 1.622z"></path>
</svg>
