<svg version="1.1" xmlns="http://www.w3.org/2000/svg" width="24" height="24" viewBox="0 0 24 24">
<title>loading</title>
<path  opacity="0.4" d="M13.104 3.543c0 0.68-0.551 1.232-1.232 1.232s-1.232-0.551-1.232-1.232c0-0.68 0.551-1.232 1.232-1.232s1.232 0.551 1.232 1.232z"></path>
<path  opacity="0.2" d="M17.483 4.76c0 0.68-0.551 1.232-1.232 1.232s-1.232-0.551-1.232-1.232c0-0.68 0.551-1.232 1.232-1.232s1.232 0.551 1.232 1.232z"></path>
<path  opacity="0.2" d="M20.646 7.679c0 0.68-0.551 1.232-1.232 1.232s-1.232-0.551-1.232-1.232c0-0.68 0.551-1.232 1.232-1.232s1.232 0.551 1.232 1.232z"></path>
<path  opacity="0.2" d="M21.862 12.058c0 0.68-0.551 1.232-1.232 1.232s-1.232-0.551-1.232-1.232c0-0.68 0.551-1.232 1.232-1.232s1.232 0.551 1.232 1.232z"></path>
<path  opacity="0.4" d="M20.646 16.194c0 0.68-0.551 1.232-1.232 1.232s-1.232-0.551-1.232-1.232c0-0.68 0.551-1.232 1.232-1.232s1.232 0.551 1.232 1.232z"></path>
<path  opacity="0.8" d="M5.806 7.679c0 0.68-0.551 1.232-1.232 1.232s-1.232-0.551-1.232-1.232c0-0.68 0.551-1.232 1.232-1.232s1.232 0.551 1.232 1.232z"></path>
<path  opacity="0.6" d="M8.969 4.76c0 0.68-0.551 1.232-1.232 1.232s-1.232-0.551-1.232-1.232c0-0.68 0.551-1.232 1.232-1.232s1.232 0.551 1.232 1.232z"></path>
<path  opacity="0.6" d="M17.483 19.6c0 0.68-0.551 1.232-1.232 1.232s-1.232-0.551-1.232-1.232c0-0.68 0.551-1.232 1.232-1.232s1.232 0.551 1.232 1.232z"></path>
<path  opacity="0.8" d="M13.348 20.573c0 0.68-0.551 1.232-1.232 1.232s-1.232-0.551-1.232-1.232c0-0.68 0.551-1.232 1.232-1.232s1.232 0.551 1.232 1.232z"></path>
<path  opacity="0.9" d="M9.197 19.6c0 0.806-0.654 1.46-1.46 1.46s-1.46-0.654-1.46-1.46c0-0.806 0.654-1.46 1.46-1.46s1.46 0.654 1.46 1.46z"></path>
<path  opacity="0.9" d="M4.818 12.18c0 0.739-0.599 1.338-1.338 1.338s-1.338-0.599-1.338-1.338c0-0.739 0.599-1.338 1.338-1.338s1.338 0.599 1.338 1.338z"></path>
<path  d="M6.277 16.316c0 0.873-0.708 1.581-1.581 1.581s-1.581-0.708-1.581-1.581c0-0.873 0.708-1.581 1.581-1.581s1.581 0.708 1.581 1.581z"></path>
</svg>
