<!-- Generated by IcoMoon.io -->
<svg version="1.1" xmlns="http://www.w3.org/2000/svg" width="24" height="24" viewBox="0 0 24 24">
<title>loading</title>
<path fill="#000" d="M12.6 7c0 0.331-0.269 0.6-0.6 0.6-0.298 0-0.546-0.218-0.592-0.503l-0.008-0.097v-4c0-0.331 0.269-0.6 0.6-0.6 0.298 0 0.546 0.218 0.592 0.503l0.008 0.097v4z"></path>
<path fill="#000" opacity="0.9" d="M8.889 8.54c0.234 0.234 0.234 0.614 0 0.849-0.211 0.211-0.54 0.232-0.774 0.063l-0.074-0.063-2.828-2.828c-0.234-0.234-0.234-0.614 0-0.849 0.211-0.211 0.54-0.232 0.774-0.063l0.074 0.063 2.828 2.828z"></path>
<path fill="#000" opacity="0.8" d="M7 11.9c0.331 0 0.6 0.269 0.6 0.6 0 0.298-0.218 0.546-0.503 0.592l-0.097 0.008h-4c-0.331 0-0.6-0.269-0.6-0.6 0-0.298 0.218-0.546 0.503-0.592l0.097-0.008h4z"></path>
<path fill="#000" opacity="0.7" d="M5.212 18.44c-0.234 0.234-0.234 0.614 0 0.849 0.211 0.211 0.54 0.232 0.774 0.063l0.074-0.063 2.828-2.828c0.234-0.234 0.234-0.614 0-0.849-0.211-0.211-0.54-0.232-0.774-0.063l-0.074 0.063-2.828 2.828z"></path>
<path fill="#000" opacity="0.6" d="M12.6 21c0 0.331-0.269 0.6-0.6 0.6-0.298 0-0.546-0.218-0.592-0.503l-0.008-0.097v-4c0-0.331 0.269-0.6 0.6-0.6 0.298 0 0.546 0.218 0.592 0.503l0.008 0.097v4z"></path>
<path fill="#000" opacity="0.5" d="M18.788 18.44c0.234 0.234 0.234 0.614 0 0.849-0.211 0.211-0.54 0.232-0.774 0.063l-0.074-0.063-2.828-2.828c-0.234-0.234-0.234-0.614 0-0.849 0.211-0.211 0.54-0.232 0.774-0.063l0.074 0.063 2.828 2.828z"></path>
<path fill="#000" opacity="0.4" d="M21 11.9c0.331 0 0.6 0.269 0.6 0.6 0 0.298-0.218 0.546-0.503 0.592l-0.097 0.008h-4c-0.331 0-0.6-0.269-0.6-0.6 0-0.298 0.218-0.546 0.503-0.592l0.097-0.008h4z"></path>
<path fill="#000" opacity="0.3" d="M15.111 8.54c-0.234 0.234-0.234 0.614 0 0.849 0.211 0.211 0.54 0.232 0.774 0.063l0.074-0.063 2.828-2.828c0.234-0.234 0.234-0.614 0-0.849-0.211-0.211-0.54-0.232-0.774-0.063l-0.074 0.063-2.828 2.828z"></path>
</svg>
