<?xml version="1.0" encoding="UTF-8"?>
<svg width="24px" height="24px" viewBox="0 0 24 24" version="1.1" xmlns="http://www.w3.org/2000/svg" xmlns:xlink="http://www.w3.org/1999/xlink">
    <title>loading</title>
    <g id="loading" stroke="none" stroke-width="1" fill="none" fill-rule="evenodd">
        <path d="M14,4.4 C14.3313708,4.4 14.6,4.66862915 14.6,5 C14.6,5.29823376 14.3824104,5.54564675 14.0973231,5.59214701 L14,5.6 L10,5.6 C9.66862915,5.6 9.4,5.33137085 9.4,5 C9.4,4.70176624 9.61758961,4.45435325 9.90267688,4.40785299 L10,4.4 L14,4.4 Z" id="path1" fill="#000000" fill-rule="nonzero" transform="translate(12.000000, 5.000000) rotate(90.000000) translate(-12.000000, -5.000000) "></path>
        <path d="M9.05025253,6.95025253 C9.38162338,6.95025253 9.65025253,7.21888168 9.65025253,7.55025253 C9.65025253,7.8484863 9.43266292,8.09589928 9.14757565,8.14239954 L9.05025253,8.15025253 L5.05025253,8.15025253 C4.71888168,8.15025253 4.45025253,7.88162338 4.45025253,7.55025253 C4.45025253,7.25201877 4.66784214,7.00460578 4.95292942,6.95810552 L5.05025253,6.95025253 L9.05025253,6.95025253 Z" id="path2" fill="#000000" fill-rule="nonzero" opacity="0.900000036" transform="translate(7.050253, 7.550253) rotate(45.000000) translate(-7.050253, -7.550253) "></path>
        <path d="M7,11.9 C7.33137085,11.9 7.6,12.1686292 7.6,12.5 C7.6,12.7982338 7.38241039,13.0456468 7.09732312,13.092147 L7,13.1 L3,13.1 C2.66862915,13.1 2.4,12.8313708 2.4,12.5 C2.4,12.2017662 2.61758961,11.9543532 2.90267688,11.907853 L3,11.9 L7,11.9 Z" id="path3" fill="#000000" fill-rule="nonzero" opacity="0.800000012"></path>
        <path d="M9.05025253,16.8497475 C9.38162338,16.8497475 9.65025253,17.1183766 9.65025253,17.4497475 C9.65025253,17.7479812 9.43266292,17.9953942 9.14757565,18.0418945 L9.05025253,18.0497475 L5.05025253,18.0497475 C4.71888168,18.0497475 4.45025253,17.7811183 4.45025253,17.4497475 C4.45025253,17.1515137 4.66784214,16.9041007 4.95292942,16.8576005 L5.05025253,16.8497475 L9.05025253,16.8497475 Z" id="path4" fill="#000000" fill-rule="nonzero" opacity="0.699999988" transform="translate(7.050253, 17.449747) scale(-1, 1) rotate(45.000000) translate(-7.050253, -17.449747) "></path>
        <path d="M14,18.4 C14.3313708,18.4 14.6,18.6686292 14.6,19 C14.6,19.2982338 14.3824104,19.5456468 14.0973231,19.592147 L14,19.6 L10,19.6 C9.66862915,19.6 9.4,19.3313708 9.4,19 C9.4,18.7017662 9.61758961,18.4543532 9.90267688,18.407853 L10,18.4 L14,18.4 Z" id="path5" fill="#000000" fill-rule="nonzero" opacity="0.600000024" transform="translate(12.000000, 19.000000) rotate(90.000000) translate(-12.000000, -19.000000) "></path>
        <path d="M18.9497475,16.8497475 C19.2811183,16.8497475 19.5497475,17.1183766 19.5497475,17.4497475 C19.5497475,17.7479812 19.3321579,17.9953942 19.0470706,18.0418945 L18.9497475,18.0497475 L14.9497475,18.0497475 C14.6183766,18.0497475 14.3497475,17.7811183 14.3497475,17.4497475 C14.3497475,17.1515137 14.5673371,16.9041007 14.8524244,16.8576005 L14.9497475,16.8497475 L18.9497475,16.8497475 Z" id="path6" fill="#000000" fill-rule="nonzero" opacity="0.5" transform="translate(16.949747, 17.449747) rotate(45.000000) translate(-16.949747, -17.449747) "></path>
        <path d="M21,11.9 C21.3313708,11.9 21.6,12.1686292 21.6,12.5 C21.6,12.7982338 21.3824104,13.0456468 21.0973231,13.092147 L21,13.1 L17,13.1 C16.6686292,13.1 16.4,12.8313708 16.4,12.5 C16.4,12.2017662 16.6175896,11.9543532 16.9026769,11.907853 L17,11.9 L21,11.9 Z" id="path7" fill="#000000" fill-rule="nonzero" opacity="0.400000006"></path>
        <path d="M18.9497475,6.95025253 C19.2811183,6.95025253 19.5497475,7.21888168 19.5497475,7.55025253 C19.5497475,7.8484863 19.3321579,8.09589928 19.0470706,8.14239954 L18.9497475,8.15025253 L14.9497475,8.15025253 C14.6183766,8.15025253 14.3497475,7.88162338 14.3497475,7.55025253 C14.3497475,7.25201877 14.5673371,7.00460578 14.8524244,6.95810552 L14.9497475,6.95025253 L18.9497475,6.95025253 Z" id="path8" fill="#000000" fill-rule="nonzero" opacity="0.300000012" transform="translate(16.949747, 7.550253) scale(-1, 1) rotate(45.000000) translate(-16.949747, -7.550253) "></path>
    </g>
</svg>