<svg version="1.1" xmlns="http://www.w3.org/2000/svg" width="24" height="24" viewBox="0 0 24 24">
<title>more</title>
<path d="M8.71 3h-3.311c-1.325 0-2.399 1.089-2.399 2.432v3.338c0 1.343 1.074 2.432 2.399 2.432h3.311c1.325 0 2.399-1.089 2.399-2.432v-3.338c0-1.343-1.074-2.432-2.399-2.432zM5.399 4.122h3.311c0.713 0 1.292 0.586 1.292 1.309v3.338c0 0.723-0.578 1.309-1.292 1.309h-3.311c-0.713 0-1.292-0.586-1.292-1.309v-3.338c0-0.723 0.578-1.309 1.292-1.309zM18.601 3h-3.311c-1.325 0-2.399 1.089-2.399 2.432v3.338c0 1.343 1.074 2.432 2.399 2.432h3.311c1.325 0 2.399-1.089 2.399-2.432v-3.338c0-1.343-1.074-2.432-2.399-2.432zM15.29 4.122h3.311c0.713 0 1.292 0.586 1.292 1.309v3.338c0 0.723-0.578 1.309-1.292 1.309h-3.311c-0.713 0-1.292-0.586-1.292-1.309v-3.338c0-0.723 0.578-1.309 1.292-1.309zM8.71 12.799h-3.311c-1.325 0-2.399 1.089-2.399 2.432v3.338c0 1.343 1.074 2.432 2.399 2.432h3.311c1.325 0 2.399-1.089 2.399-2.432v-3.338c0-1.343-1.074-2.432-2.399-2.432zM5.399 13.921h3.311c0.713 0 1.292 0.586 1.292 1.309v3.338c0 0.723-0.578 1.309-1.292 1.309h-3.311c-0.713 0-1.292-0.586-1.292-1.309v-3.338c0-0.723 0.578-1.309 1.292-1.309zM18.601 12.799h-3.311c-1.325 0-2.399 1.089-2.399 2.432v3.338c0 1.343 1.074 2.432 2.399 2.432h3.311c1.325 0 2.399-1.089 2.399-2.432v-3.338c0-1.343-1.074-2.432-2.399-2.432zM15.29 13.921h3.311c0.713 0 1.292 0.586 1.292 1.309v3.338c0 0.723-0.578 1.309-1.292 1.309h-3.311c-0.713 0-1.292-0.586-1.292-1.309v-3.338c0-0.723 0.578-1.309 1.292-1.309z"></path>
</svg>
