<!-- Generated by IcoMoon.io -->
<svg version="1.1" xmlns="http://www.w3.org/2000/svg" width="24" height="24" viewBox="0 0 24 24">
<title>more</title>
<path d="M8.53 12.855c1.436 0 2.6 1.164 2.6 2.6v0 3.568c0 1.436-1.164 2.6-2.6 2.6v0h-3.589c-1.436 0-2.6-1.164-2.6-2.6v0-3.568c0-1.436 1.164-2.6 2.6-2.6v0zM19.252 12.855c1.436 0 2.6 1.164 2.6 2.6v0 3.568c0 1.436-1.164 2.6-2.6 2.6v0h-3.589c-1.436 0-2.6-1.164-2.6-2.6v0-3.568c0-1.436 1.164-2.6 2.6-2.6v0zM8.53 14.055h-3.589c-0.773 0-1.4 0.627-1.4 1.4v0 3.568c0 0.773 0.627 1.4 1.4 1.4v0h3.589c0.773 0 1.4-0.627 1.4-1.4v0-3.568c0-0.773-0.627-1.4-1.4-1.4v0zM19.252 14.055h-3.589c-0.773 0-1.4 0.627-1.4 1.4v0 3.568c0 0.773 0.627 1.4 1.4 1.4v0h3.589c0.773 0 1.4-0.627 1.4-1.4v0-3.568c0-0.773-0.627-1.4-1.4-1.4v0zM8.53 2.379c1.436 0 2.6 1.164 2.6 2.6v0 3.568c0 1.436-1.164 2.6-2.6 2.6v0h-3.589c-1.436 0-2.6-1.164-2.6-2.6v0-3.568c0-1.436 1.164-2.6 2.6-2.6v0zM19.252 2.379c1.436 0 2.6 1.164 2.6 2.6v0 3.568c0 1.436-1.164 2.6-2.6 2.6v0h-3.589c-1.436 0-2.6-1.164-2.6-2.6v0-3.568c0-1.436 1.164-2.6 2.6-2.6v0zM8.53 3.579h-3.589c-0.773 0-1.4 0.627-1.4 1.4v0 3.568c0 0.773 0.627 1.4 1.4 1.4v0h3.589c0.773 0 1.4-0.627 1.4-1.4v0-3.568c0-0.773-0.627-1.4-1.4-1.4v0zM19.252 3.579h-3.589c-0.773 0-1.4 0.627-1.4 1.4v0 3.568c0 0.773 0.627 1.4 1.4 1.4v0h3.589c0.773 0 1.4-0.627 1.4-1.4v0-3.568c0-0.773-0.627-1.4-1.4-1.4v0z"></path>
</svg>
