<?xml version="1.0" encoding="UTF-8"?>
<svg width="24px" height="24px" viewBox="0 0 24 24" version="1.1" xmlns="http://www.w3.org/2000/svg" xmlns:xlink="http://www.w3.org/1999/xlink">
    <title>people</title>
    <g id="people" stroke="none" stroke-width="1" fill="none" fill-rule="evenodd">
        <path d="M11.6875,1.5 C14.8286195,1.5 17.375,4.04638049 17.375,7.1875 C17.375,10.3286195 14.8286195,12.875 11.6875,12.875 C11.4094303,12.875 11.1360214,12.8550445 10.8686274,12.8164876 C6.01689238,13.3755207 2.25,17.4978579 2.25,22.5 C2.25,22.9142136 1.91421356,23.25 1.5,23.25 C1.08578644,23.25 0.75,22.9142136 0.75,22.5 C0.75,17.54184 3.95748277,13.3328278 8.4106876,11.834724 C6.95209507,10.8065567 6,9.10821519 6,7.1875 C6,4.04638049 8.54638049,1.5 11.6875,1.5 Z M16.9367809,12.3884183 C20.7680158,14.2622207 23.25,18.1583718 23.25,22.5 C23.25,22.9142136 22.9142136,23.25 22.5,23.25 C22.0857864,23.25 21.75,22.9142136 21.75,22.5 C21.75,18.7367348 19.5991033,15.3603159 16.2777516,13.7358902 C15.9056575,13.5539043 15.7515444,13.1047337 15.9335303,12.7326396 C16.1155162,12.3605455 16.5646868,12.2064324 16.9367809,12.3884183 Z M11.6875,3.125 C9.4438432,3.125 7.625,4.9438432 7.625,7.1875 C7.625,9.4311568 9.4438432,11.25 11.6875,11.25 C13.9311568,11.25 15.75,9.4311568 15.75,7.1875 C15.75,4.9438432 13.9311568,3.125 11.6875,3.125 Z" id="path1" fill="#000000" fill-rule="nonzero"></path>
    </g>
</svg>