<!-- Generated by IcoMoon.io -->
<svg version="1.1" xmlns="http://www.w3.org/2000/svg" width="24" height="24" viewBox="0 0 24 24">
<title>people</title>
<path d="M11.688 1.5c3.141 0 5.688 2.546 5.688 5.688s-2.546 5.688-5.688 5.688c-0.278 0-0.551-0.020-0.819-0.059-4.852 0.559-8.619 4.681-8.619 9.684 0 0.414-0.336 0.75-0.75 0.75s-0.75-0.336-0.75-0.75c0-4.958 3.207-9.167 7.661-10.665-1.459-1.028-2.411-2.727-2.411-4.647 0-3.141 2.546-5.688 5.688-5.688zM16.937 12.388c3.831 1.874 6.313 5.77 6.313 10.112 0 0.414-0.336 0.75-0.75 0.75s-0.75-0.336-0.75-0.75c0-3.763-2.151-7.14-5.472-8.764-0.372-0.182-0.526-0.631-0.344-1.003s0.631-0.526 1.003-0.344zM11.688 3.125c-2.244 0-4.062 1.819-4.062 4.062s1.819 4.062 4.062 4.062c2.244 0 4.062-1.819 4.062-4.062s-1.819-4.062-4.062-4.062z"></path>
</svg>
