<svg version="1.1" xmlns="http://www.w3.org/2000/svg" width="24" height="24" viewBox="0 0 24 24">
<title>people</title>
<path d="M11.722 2c2.792 0 5.056 2.341 5.056 5.23s-2.263 5.23-5.056 5.23c-0.247 0-0.49-0.018-0.728-0.054-4.312 0.514-7.661 4.305-7.661 8.904 0 0.381-0.298 0.69-0.667 0.69s-0.667-0.309-0.667-0.69c0-4.559 2.85-8.429 6.808-9.807-1.295-0.946-2.141-2.508-2.141-4.274 0-2.888 2.263-5.23 5.056-5.23zM16.388 12.012c3.406 1.723 5.612 5.306 5.612 9.298 0 0.381-0.298 0.69-0.667 0.69s-0.667-0.309-0.667-0.69c0-3.46-1.912-6.565-4.864-8.059-0.331-0.167-0.468-0.58-0.306-0.923s0.561-0.484 0.892-0.317zM11.722 3.494c-1.994 0-3.611 1.672-3.611 3.736s1.617 3.736 3.611 3.736c1.994 0 3.611-1.672 3.611-3.736s-1.617-3.736-3.611-3.736z"></path>
</svg>
