<!-- Generated by IcoMoon.io -->
<svg version="1.1" xmlns="http://www.w3.org/2000/svg" width="24" height="24" viewBox="0 0 24 24">
<title>point2</title>
<path d="M12 1.3c1.111 0 2.2 0.17 3.239 0.499 0.369 0.117 0.572 0.51 0.456 0.879s-0.51 0.572-0.879 0.456c-0.902-0.286-1.849-0.434-2.816-0.434-5.136 0-9.3 4.164-9.3 9.3s4.164 9.3 9.3 9.3c5.136 0 9.3-4.164 9.3-9.3 0-2.978-1.408-5.72-3.752-7.465-0.31-0.231-0.374-0.669-0.143-0.98s0.669-0.374 0.98-0.143c2.695 2.007 4.316 5.163 4.316 8.588 0 5.909-4.791 10.7-10.7 10.7s-10.7-4.791-10.7-10.7c0-5.909 4.791-10.7 10.7-10.7zM12 16.75c0.552 0 1 0.448 1 1s-0.448 1-1 1c-0.552 0-1-0.448-1-1s0.448-1 1-1zM12 6c0.38 0 0.693 0.282 0.743 0.648l0.007 0.102v8c0 0.414-0.336 0.75-0.75 0.75-0.38 0-0.693-0.282-0.743-0.648l-0.007-0.102v-8c0-0.414 0.336-0.75 0.75-0.75z"></path>
</svg>
