<svg version="1.1" xmlns="http://www.w3.org/2000/svg" width="24" height="24" viewBox="0 0 24 24">
<title>question</title>
<path d="M12 1.3c1.111 0 2.2 0.17 3.239 0.499 0.369 0.117 0.572 0.51 0.456 0.879s-0.51 0.572-0.879 0.456c-0.902-0.286-1.849-0.434-2.816-0.434-5.136 0-9.3 4.164-9.3 9.3s4.164 9.3 9.3 9.3c5.136 0 9.3-4.164 9.3-9.3 0-2.978-1.408-5.72-3.752-7.465-0.31-0.231-0.374-0.669-0.143-0.98s0.669-0.374 0.98-0.143c2.695 2.007 4.316 5.163 4.316 8.588 0 5.909-4.791 10.7-10.7 10.7s-10.7-4.791-10.7-10.7c0-5.909 4.791-10.7 10.7-10.7zM12.25 16.7c0.414 0 0.75 0.336 0.75 0.75s-0.336 0.75-0.75 0.75c-0.414 0-0.75-0.336-0.75-0.75s0.336-0.75 0.75-0.75zM12.5 5.8c2.331 0 3.966 1.578 3.966 3.887 0 1.244-0.672 2.227-1.855 3.189l-0.4 0.307-0.851 0.642-0.111 0.092c-0.116 0.11-0.203 0.258-0.264 0.442-0.069 0.208-0.096 0.426-0.098 0.662l0.008 0.312c0 0.387-0.313 0.7-0.7 0.7-0.354 0-0.647-0.263-0.694-0.605l-0.010-0.167c-0.020-0.461 0.014-0.886 0.163-1.34 0.129-0.391 0.333-0.737 0.628-1.018l0.067-0.059 0.215-0.173 1.095-0.829c0.027-0.021 0.050-0.039 0.066-0.052 0.888-0.722 1.338-1.381 1.338-2.103 0-1.524-0.997-2.487-2.566-2.487-1.546 0-2.8 1.254-2.8 2.8 0 0.387-0.313 0.7-0.7 0.7s-0.7-0.313-0.7-0.7c0-2.32 1.88-4.2 4.2-4.2z"></path>
</svg>
