<svg version="1.1" xmlns="http://www.w3.org/2000/svg" width="24" height="24" viewBox="0 0 24 24">
<title>refresh</title>
<path d="M12.301 3c2.095 0 4.076 0.675 5.675 1.868l1.173-1.352c0.051-0.059 0.141-0.066 0.2-0.014 0.020 0.018 0.035 0.041 0.043 0.066l1.312 4.34c0.023 0.075-0.020 0.154-0.095 0.177-0.018 0.006-0.037 0.007-0.056 0.005l-4.645-0.497c-0.078-0.008-0.134-0.078-0.126-0.156 0.003-0.029 0.015-0.056 0.034-0.078l1.239-1.429c-1.344-0.987-3.001-1.545-4.754-1.545-4.347 0-7.87 3.41-7.87 7.615s3.524 7.615 7.87 7.615c3.255 0 6.138-1.93 7.318-4.808 0.146-0.355 0.562-0.529 0.929-0.388s0.547 0.543 0.401 0.899c-1.395 3.402-4.802 5.682-8.648 5.682-5.137 0-9.301-4.029-9.301-9s4.164-9 9.301-9z"></path>
</svg>
