<!-- Generated by IcoMoon.io -->
<svg version="1.1" xmlns="http://www.w3.org/2000/svg" width="24" height="24" viewBox="0 0 24 24">
<title>refresh</title>
<path d="M12 2.25c2.196 0 4.273 0.732 5.948 2.023l1.226-1.461c0.053-0.063 0.148-0.072 0.211-0.018 0.023 0.019 0.039 0.044 0.048 0.073l1.377 4.706c0.023 0.079-0.022 0.163-0.102 0.186-0.019 0.006-0.039 0.007-0.059 0.005l-4.873-0.539c-0.082-0.009-0.142-0.083-0.133-0.166 0.003-0.029 0.015-0.057 0.034-0.080l1.305-1.556c-1.409-1.070-3.146-1.674-4.983-1.674-4.556 0-8.25 3.694-8.25 8.25s3.694 8.25 8.25 8.25c3.412 0 6.434-2.090 7.672-5.209 0.153-0.385 0.589-0.573 0.974-0.421s0.573 0.589 0.421 0.974c-1.462 3.685-5.034 6.156-9.066 6.156-5.385 0-9.75-4.365-9.75-9.75s4.365-9.75 9.75-9.75z"></path>
</svg>
