<!-- Generated by IcoMoon.io -->
<svg version="1.1" xmlns="http://www.w3.org/2000/svg" width="24" height="24" viewBox="0 0 24 24">
<title>search</title>
<path d="M17.455 16.52l3.358 3.357c0.293 0.293 0.293 0.768 0 1.061s-0.768 0.293-1.061 0l-3.368-3.368c0.384-0.321 0.742-0.672 1.070-1.050zM10.375 2c4.625 0 8.375 3.75 8.375 8.375 0 2.074-0.754 3.972-2.003 5.435v0l-0.022 0.026c-0.067 0.078-0.135 0.154-0.205 0.229l0.227-0.255c-0.093 0.109-0.188 0.215-0.287 0.319-0.059 0.062-0.118 0.123-0.178 0.183-0.021 0.021-0.042 0.041-0.063 0.062-0.070 0.068-0.142 0.136-0.215 0.202-0.028 0.026-0.057 0.051-0.086 0.077-0.067 0.059-0.135 0.117-0.203 0.174-0.014 0.011-0.027 0.023-0.041 0.034-1.444 1.181-3.289 1.889-5.299 1.889-4.625 0-8.375-3.75-8.375-8.375s3.75-8.375 8.375-8.375zM10.375 3.5c-3.797 0-6.875 3.078-6.875 6.875s3.078 6.875 6.875 6.875c3.797 0 6.875-3.078 6.875-6.875s-3.078-6.875-6.875-6.875z"></path>
</svg>
