<svg version="1.1" xmlns="http://www.w3.org/2000/svg" width="24" height="24" viewBox="0 0 24 24">
<title>star</title>
<path d="M10.991 4.197c0.275-0.557 0.95-0.786 1.507-0.511 0.177 0.088 0.328 0.22 0.437 0.383l0.074 0.128 1.798 3.643c0.041 0.083 0.111 0.147 0.194 0.181l0.088 0.024 4.020 0.584c0.615 0.089 1.041 0.66 0.952 1.275-0.028 0.196-0.108 0.38-0.229 0.534l-0.099 0.11-2.909 2.836c-0.066 0.065-0.106 0.151-0.112 0.241l0.004 0.091 0.687 4.004c0.105 0.612-0.306 1.194-0.919 1.299-0.195 0.033-0.395 0.015-0.579-0.053l-0.135-0.060-3.596-1.891c-0.082-0.043-0.176-0.054-0.264-0.032l-0.085 0.032-3.596 1.891c-0.55 0.289-1.23 0.078-1.519-0.472-0.092-0.175-0.136-0.371-0.128-0.567l0.015-0.147 0.687-4.004c0.016-0.091-0.003-0.184-0.051-0.261l-0.057-0.071-2.909-2.836c-0.445-0.434-0.454-1.146-0.020-1.591 0.138-0.142 0.311-0.244 0.499-0.297l0.144-0.031 4.020-0.584c0.092-0.013 0.174-0.060 0.232-0.129l0.050-0.076 1.798-3.643zM12 5.542l-1.462 2.961c-0.208 0.422-0.565 0.747-1.012 0.92l-0.197 0.065-0.202 0.041-3.269 0.474 2.366 2.306c0.337 0.328 0.536 0.768 0.562 1.247l-0.023 0.413-0.559 3.255 2.924-1.537c0.416-0.219 0.896-0.272 1.36-0.149l0.197 0.063 0.188 0.085 2.922 1.537-0.557-3.255c-0.080-0.463 0.018-0.936 0.279-1.339l0.121-0.168 0.139-0.153 2.364-2.306-3.268-0.474c-0.465-0.068-0.885-0.307-1.187-0.679l-0.122-0.167-0.102-0.18-1.462-2.961z"></path>
<path d="M12.232 4.969l0.006 0.014 0.001 10.957c-0.284 0.003-0.568 0.063-0.834 0.178l-0.157 0.076-3.328 1.775 0.66-3.576c0.133-0.719-0.107-1.456-0.637-1.959l-2.704-2.565 3.725-0.467c0.721-0.090 1.348-0.537 1.669-1.189l1.599-3.244z"></path>
<path d="M11.838 5.093l-0.006 0.014-0.001 10.957c0.284 0.003 0.568 0.063 0.834 0.178l0.157 0.076 3.328 1.775-0.66-3.576c-0.133-0.719 0.107-1.456 0.637-1.959l2.704-2.565-3.725-0.467c-0.721-0.090-1.348-0.537-1.669-1.189l-1.599-3.244z"></path>
</svg>
