
<svg version="1.1" xmlns="http://www.w3.org/2000/svg" width="24" height="24" viewBox="0 0 24 24">
<title>star</title>
<path d="M12.005 18.201c0.17-0 0.341 0.041 0.496 0.122l3.47 1.824c0.624 0.328 1.397 0.088 1.725-0.536 0.131-0.249 0.176-0.533 0.128-0.81l-0.663-3.864c-0.059-0.345 0.055-0.698 0.306-0.942l2.808-2.737c0.505-0.492 0.515-1.301 0.023-1.806-0.196-0.201-0.453-0.332-0.731-0.372l-3.88-0.564c-0.347-0.050-0.646-0.268-0.801-0.582l-1.735-3.516c-0.223-0.452-0.678-0.714-1.151-0.712-0.002 0.302 0.004 14.133 0.004 14.496z"></path>
<path d="M12.001 18.201c-0.17-0-0.341 0.041-0.496 0.122l-3.47 1.824c-0.624 0.328-1.397 0.088-1.725-0.536-0.131-0.249-0.176-0.533-0.128-0.81l0.663-3.864c0.059-0.345-0.055-0.698-0.306-0.942l-2.808-2.737c-0.505-0.492-0.515-1.301-0.023-1.806 0.196-0.201 0.453-0.332 0.731-0.372l3.88-0.564c0.347-0.050 0.646-0.268 0.801-0.582l1.735-3.516c0.223-0.452 0.678-0.714 1.151-0.712 0.002 0.302-0.004 14.133-0.004 14.496z"></path>
<path d="M12.565 3.837c0.252 0.124 0.456 0.328 0.58 0.58l1.735 3.516c0.155 0.314 0.455 0.532 0.801 0.582l3.88 0.564c0.698 0.101 1.182 0.75 1.080 1.448-0.040 0.278-0.171 0.535-0.372 0.731l-2.808 2.737c-0.251 0.245-0.365 0.597-0.306 0.942l0.663 3.864c0.119 0.695-0.348 1.356-1.043 1.475-0.277 0.047-0.562 0.002-0.81-0.128l-3.47-1.824c-0.31-0.163-0.681-0.163-0.991 0l-3.47 1.824c-0.624 0.328-1.397 0.088-1.725-0.536-0.131-0.249-0.176-0.533-0.128-0.81l0.663-3.864c0.059-0.345-0.055-0.698-0.306-0.942l-2.808-2.737c-0.505-0.492-0.515-1.301-0.023-1.806 0.196-0.201 0.453-0.332 0.731-0.372l3.88-0.564c0.347-0.050 0.646-0.268 0.801-0.582l1.735-3.516c0.312-0.633 1.078-0.892 1.711-0.58zM13.735 8.499l-1.556-3.152c-0.049-0.099-0.169-0.14-0.268-0.091-0.039 0.019-0.071 0.051-0.091 0.091l-1.556 3.152c-0.315 0.638-0.901 1.095-1.589 1.249l-0.174 0.032-3.479 0.506c-0.109 0.016-0.185 0.117-0.169 0.227 0.006 0.044 0.027 0.084 0.058 0.114l2.517 2.454c0.506 0.493 0.76 1.186 0.698 1.883l-0.025 0.19-0.594 3.465c-0.019 0.109 0.054 0.212 0.163 0.231 0.043 0.007 0.088 0 0.127-0.020l3.112-1.636c0.625-0.329 1.362-0.356 2.006-0.082l0.173 0.082 3.112 1.636c0.098 0.051 0.219 0.014 0.27-0.084 0.020-0.039 0.028-0.084 0.020-0.127l-0.594-3.465c-0.119-0.696 0.082-1.406 0.542-1.933l0.132-0.139 2.517-2.454c0.079-0.077 0.081-0.204 0.004-0.283-0.031-0.031-0.071-0.052-0.114-0.058l-3.479-0.506c-0.704-0.102-1.32-0.518-1.679-1.125l-0.084-0.156z"></path>
</svg>
