<svg version="1.1" xmlns="http://www.w3.org/2000/svg" width="24" height="24" viewBox="0 0 24 24">
<title>success</title>
<path d="M12 1.5c5.798 0 10.5 4.702 10.5 10.5s-4.702 10.5-10.5 10.5c-5.798 0-10.5-4.702-10.5-10.5s4.702-10.5 10.5-10.5zM16.528 7.726c-0.32-0.156-0.718-0.068-0.938 0.226l-4.846 6.492-2.396-2.494-0.102-0.089c-0.289-0.209-0.695-0.189-0.963 0.063l-0.090 0.101c-0.21 0.286-0.191 0.689 0.064 0.954l3.016 3.137 0.093 0.082c0.327 0.244 0.805 0.185 1.058-0.154l5.377-7.207 0.071-0.115c0.158-0.318 0.069-0.711-0.228-0.929z"></path>
</svg>
