<svg version="1.1" xmlns="http://www.w3.org/2000/svg" width="24" height="24" viewBox="0 0 24 24">
<title>success</title>
<path d="M12 2c5.523 0 10 4.477 10 10s-4.477 10-10 10c-5.523 0-10-4.477-10-10s4.477-10 10-10zM17.565 8.341c-0.233-0.236-0.613-0.239-0.849-0.006l-5.638 5.536-2.877-2.887-0.082-0.053c-0.255-0.136-0.578-0.071-0.759 0.166-0.201 0.264-0.15 0.64 0.114 0.841l3.291 3.204 0.082 0.053c0.228 0.121 0.513 0.084 0.702-0.103l6.008-5.902 0.070-0.083c0.164-0.233 0.143-0.556-0.064-0.766z"></path>
</svg>
