<?xml version="1.0" encoding="UTF-8"?>
<svg width="24px" height="24px" viewBox="0 0 24 24" version="1.1" xmlns="http://www.w3.org/2000/svg" xmlns:xlink="http://www.w3.org/1999/xlink">
    <title>success</title>
    <g id="success" stroke="none" stroke-width="1" fill="none" fill-rule="evenodd">
        <path d="M12,2 C17.5228475,2 22,6.4771525 22,12 C22,17.5228475 17.5228475,22 12,22 C6.4771525,22 2,17.5228475 2,12 C2,6.4771525 6.4771525,2 12,2 Z M17.5273407,8.17880283 C17.2947199,7.94280666 16.9148308,7.94007041 16.6788346,8.17269124 L16.6788346,8.17269124 L10.9620319,13.8060001 L7.96367155,11.522261 L7.88149993,11.4695231 C7.62655522,11.3337283 7.30353271,11.3986504 7.12278332,11.6358698 C6.92195067,11.8994469 6.97281509,12.2759254 7.23639218,12.4767581 L7.23639218,12.4767581 L10.649332,15.0772486 L10.7318153,15.1301152 C10.9597471,15.2512133 11.2450884,15.2136852 11.434169,15.027309 L11.434169,15.027309 L17.5212291,9.02730895 L17.5912524,8.94471369 C17.7549277,8.71204477 17.7341148,8.3885772 17.5273407,8.17880283 Z" id="path1" fill="#000000"></path>
    </g>
</svg>