<svg version="1.1" xmlns="http://www.w3.org/2000/svg" width="24" height="24" viewBox="0 0 24 24">
<title>time</title>
<path d="M12 2c1.072 0 2.122 0.169 3.121 0.497 0.375 0.123 0.579 0.527 0.456 0.901s-0.527 0.579-0.901 0.456c-0.856-0.281-1.755-0.426-2.676-0.426-4.734 0-8.571 3.838-8.571 8.571s3.838 8.571 8.571 8.571c4.734 0 8.571-3.838 8.571-8.571 0-2.662-1.221-5.122-3.273-6.738-0.31-0.244-0.363-0.693-0.119-1.003s0.693-0.363 1.003-0.119c2.393 1.884 3.818 4.756 3.818 7.861 0 5.523-4.477 10-10 10s-10-4.477-10-10c0-5.523 4.477-10 10-10zM12.714 6.068c0.395 0 0.714 0.32 0.714 0.714v6.252l-3.444 3.081c-0.294 0.263-0.746 0.238-1.009-0.056s-0.238-0.746 0.056-1.009l2.968-2.657v-5.611c0-0.394 0.32-0.714 0.714-0.714z"></path>
</svg>
