<svg version="1.1" xmlns="http://www.w3.org/2000/svg" width="24" height="24" viewBox="0 0 24 24">
<title>time</title>
<path d="M12 1.5c1.126 0 2.228 0.177 3.277 0.522 0.394 0.129 0.608 0.553 0.479 0.946s-0.553 0.608-0.947 0.479c-0.898-0.295-1.843-0.447-2.809-0.447-4.971 0-9 4.029-9 9s4.029 9 9 9c4.971 0 9-4.029 9-9 0-2.795-1.282-5.378-3.437-7.075-0.325-0.256-0.381-0.728-0.125-1.053s0.728-0.381 1.053-0.125c2.512 1.978 4.009 4.993 4.009 8.254 0 5.799-4.701 10.5-10.5 10.5s-10.5-4.701-10.5-10.5c0-5.799 4.701-10.5 10.5-10.5zM12.75 5.771c0.414 0 0.75 0.336 0.75 0.75v6.564l-3.616 3.235c-0.309 0.276-0.783 0.25-1.059-0.059s-0.25-0.783 0.059-1.059l3.116-2.79v-5.891c0-0.414 0.336-0.75 0.75-0.75z"></path>
</svg>
