<svg version="1.1" xmlns="http://www.w3.org/2000/svg" width="24" height="24" viewBox="0 0 24 24">
<title>tips</title>
<path d="M12 2c5.523 0 10 4.477 10 10s-4.477 10-10 10c-5.523 0-10-4.477-10-10s4.477-10 10-10zM12.011 9.969c-0.331 0-0.6 0.269-0.6 0.6v0 6l0.008 0.097c0.046 0.285 0.294 0.503 0.592 0.503 0.331 0 0.6-0.269 0.6-0.6v0-6l-0.008-0.097c-0.047-0.285-0.294-0.503-0.592-0.503zM12.010 7.464c-0.442 0-0.8 0.358-0.8 0.8s0.358 0.8 0.8 0.8c0.442 0 0.8-0.358 0.8-0.8s-0.358-0.8-0.8-0.8z"></path>
</svg>
