<?xml version="1.0" encoding="UTF-8"?>
<svg width="24px" height="24px" viewBox="0 0 24 24" version="1.1" xmlns="http://www.w3.org/2000/svg" xmlns:xlink="http://www.w3.org/1999/xlink">
    <title>tips</title>
    <g id="tips" stroke="none" stroke-width="1" fill="none" fill-rule="evenodd">
        <path d="M12,2 C17.5228475,2 22,6.4771525 22,12 C22,17.5228475 17.5228475,22 12,22 C6.4771525,22 2,17.5228475 2,12 C2,6.4771525 6.4771525,2 12,2 Z M12.0105182,9.96922826 C11.6791474,9.96922826 11.4105182,10.2378574 11.4105182,10.5692283 L11.4105182,10.5692283 L11.4105182,16.5692283 L11.4183712,16.6665514 C11.4648715,16.9516386 11.7122845,17.1692283 12.0105182,17.1692283 C12.3418891,17.1692283 12.6105182,16.9005991 12.6105182,16.5692283 L12.6105182,16.5692283 L12.6105182,10.5692283 L12.6026652,10.4719051 C12.556165,10.1868179 12.308752,9.96922826 12.0105182,9.96922826 Z M12.0099632,7.4638735 C11.5681354,7.4638735 11.2099632,7.8220457 11.2099632,8.2638735 C11.2099632,8.7057013 11.5681354,9.0638735 12.0099632,9.0638735 C12.451791,9.0638735 12.8099632,8.7057013 12.8099632,8.2638735 C12.8099632,7.8220457 12.451791,7.4638735 12.0099632,7.4638735 Z" id="path1" fill="#000000"></path>
    </g>
</svg>