<svg version="1.1" xmlns="http://www.w3.org/2000/svg" width="24" height="24" viewBox="0 0 24 24">
<title>warning</title>
<path d="M12.496 3.626c0.167 0.091 0.304 0.226 0.397 0.39l8.478 14.993c0.274 0.484 0.096 1.095-0.397 1.365-0.152 0.083-0.322 0.126-0.496 0.126h-16.957c-0.564 0-1.021-0.449-1.021-1.003 0-0.171 0.044-0.338 0.129-0.487l8.478-14.993c0.274-0.484 0.896-0.659 1.389-0.39zM12.004 16.679c-0.42 0-0.76 0.338-0.76 0.756s0.34 0.756 0.76 0.756c0.42 0 0.76-0.338 0.76-0.756s-0.34-0.756-0.76-0.756zM11.995 8.993c-0.315 0-0.57 0.254-0.57 0.567v5.667l0.007 0.092c0.044 0.269 0.279 0.475 0.563 0.475 0.315 0 0.57-0.254 0.57-0.567v-5.667l-0.007-0.092c-0.044-0.269-0.279-0.475-0.563-0.475z"></path>
</svg>
