<svg version="1.1" xmlns="http://www.w3.org/2000/svg" width="24" height="24" viewBox="0 0 24 24">
<title>warning</title>
<path d="M12 3c0.441 0 0.884 0.213 1.137 0.638l9.185 15.449c0.505 0.851-0.125 1.913-1.137 1.913h-18.371c-1.010 0-1.642-1.062-1.137-1.913l9.185-15.449c0.252-0.425 0.694-0.638 1.137-0.638zM12 15.75c-0.621 0-1.125 0.504-1.125 1.125s0.504 1.125 1.125 1.125c0.621 0 1.125-0.504 1.125-1.125s-0.504-1.125-1.125-1.125zM12 6.75c-0.414 0-0.75 0.336-0.75 0.75v6c0 0.414 0.336 0.75 0.75 0.75s0.75-0.336 0.75-0.75v-6c0-0.414-0.336-0.75-0.75-0.75z"></path>
</svg>
