<svg version="1.1" xmlns="http://www.w3.org/2000/svg" width="24" height="24" viewBox="0 0 24 24">
<title>x2</title>
<path d="M12 2c1.038 0 2.056 0.159 3.027 0.467 0.367 0.117 0.571 0.509 0.454 0.876s-0.509 0.571-0.876 0.454c-0.835-0.265-1.71-0.401-2.605-0.401-4.752 0-8.605 3.852-8.605 8.605s3.852 8.605 8.605 8.605c4.752 0 8.605-3.852 8.605-8.605 0-2.755-1.303-5.292-3.472-6.907-0.309-0.23-0.373-0.667-0.143-0.976s0.667-0.373 0.976-0.143c2.519 1.875 4.034 4.825 4.034 8.026 0 5.523-4.477 10-10 10s-10-4.477-10-10c0-5.523 4.477-10 10-10zM15.548 7.5c0.272-0.188 0.648-0.161 0.89 0.081 0.272 0.272 0.272 0.714 0 0.987l-3.454 3.453 3.454 3.453c0.272 0.272 0.272 0.714 0 0.987-0.242 0.242-0.618 0.269-0.89 0.081l-0.097-0.081-3.454-3.454-3.453 3.454-0.097 0.081c-0.272 0.188-0.648 0.161-0.89-0.081-0.272-0.272-0.272-0.714 0-0.987l3.453-3.453-3.453-3.453c-0.272-0.272-0.272-0.714 0-0.987 0.242-0.242 0.618-0.269 0.89-0.081l0.097 0.081 3.453 3.453 3.454-3.453z"></path>
</svg>
