<svg version="1.1" xmlns="http://www.w3.org/2000/svg" width="24" height="24" viewBox="0 0 24 24">
<title>x2</title>
<path d="M12 1.25c1.116 0 2.211 0.17 3.254 0.502 0.395 0.125 0.613 0.547 0.488 0.942s-0.547 0.613-0.942 0.488c-0.898-0.285-1.839-0.431-2.801-0.431-5.109 0-9.25 4.141-9.25 9.25s4.141 9.25 9.25 9.25c5.109 0 9.25-4.141 9.25-9.25 0-2.962-1.401-5.689-3.732-7.425-0.332-0.247-0.401-0.717-0.154-1.049s0.717-0.401 1.049-0.154c2.708 2.016 4.337 5.187 4.337 8.628 0 5.937-4.813 10.75-10.75 10.75s-10.75-4.813-10.75-10.75c0-5.937 4.813-10.75 10.75-10.75zM15.814 7.163c0.292-0.202 0.696-0.174 0.957 0.087 0.293 0.293 0.293 0.768 0 1.061v0l-3.712 3.712 3.712 3.713c0.293 0.293 0.293 0.768 0 1.061-0.26 0.26-0.664 0.289-0.957 0.087l-0.104-0.087-3.713-3.713-3.712 3.713-0.104 0.087c-0.292 0.203-0.696 0.174-0.957-0.087-0.293-0.293-0.293-0.768 0-1.061v0l3.711-3.713-3.711-3.712c-0.293-0.293-0.293-0.768 0-1.061 0.26-0.26 0.664-0.289 0.957-0.087l0.104 0.087 3.712 3.711 3.713-3.711z"></path>
</svg>
