<svg xmlns="http://www.w3.org/2000/svg" xmlns:xlink="http://www.w3.org/1999/xlink" width="48" height="48" viewBox="0 0 48 48" version="1.1" style="max-width: 200px; max-height: 200px;">
    <title>ic_oth_density</title>
    <g id="ic_oth_density" stroke="none" stroke-width="1" fill="none" fill-rule="evenodd">
        <path d="M42.0022732,42 C42.554558,42 43.0022732,42.4477153 43.0022732,43 C43.0022732,43.5128358 42.616233,43.9355072 42.1188943,43.9932723 L42.0022732,44 L6.02415576,44 C5.47187101,44 5.02415576,43.5522847 5.02415576,43 C5.02415576,42.4871642 5.41019595,42.0644928 5.90753464,42.0067277 L6.02415576,42 L42.0022732,42 Z M10,30 C12.7614237,30 15,32.2385763 15,35 C15,37.7614237 12.7614237,40 10,40 C7.23857625,40 5,37.7614237 5,35 C5,32.2385763 7.23857625,30 10,30 Z M21,31 C23.209139,31 25,32.790861 25,35 C25,37.209139 23.209139,39 21,39 C18.790861,39 17,37.209139 17,35 C17,32.790861 18.790861,31 21,31 Z M31,31 C33.209139,31 35,32.790861 35,35 C35,37.209139 33.209139,39 31,39 C28.790861,39 27,37.209139 27,35 C27,32.790861 28.790861,31 31,31 Z M40,32 C41.6568542,32 43,33.3431458 43,35 C43,36.6568542 41.6568542,38 40,38 C38.3431458,38 37,36.6568542 37,35 C37,33.3431458 38.3431458,32 40,32 Z M10,32 C8.34314575,32 7,33.3431458 7,35 C7,36.6568542 8.34314575,38 10,38 C11.6568542,38 13,36.6568542 13,35 C13,33.3431458 11.6568542,32 10,32 Z M21,33 C19.8954305,33 19,33.8954305 19,35 C19,36.1045695 19.8954305,37 21,37 C22.1045695,37 23,36.1045695 23,35 C23,33.8954305 22.1045695,33 21,33 Z M31,33 C29.8954305,33 29,33.8954305 29,35 C29,36.1045695 29.8954305,37 31,37 C32.1045695,37 33,36.1045695 33,35 C33,33.8954305 32.1045695,33 31,33 Z M40,34 C39.4477153,34 39,34.4477153 39,35 C39,35.5522847 39.4477153,36 40,36 C40.5522847,36 41,35.5522847 41,35 C41,34.4477153 40.5522847,34 40,34 Z M10,8 C12.7614237,8 15,10.2385763 15,13 C15,15.7614237 12.7614237,18 10,18 C7.23857625,18 5,15.7614237 5,13 C5,10.2385763 7.23857625,8 10,8 Z M21,9 C23.209139,9 25,10.790861 25,13 C25,15.209139 23.209139,17 21,17 C18.790861,17 17,15.209139 17,13 C17,10.790861 18.790861,9 21,9 Z M31,9 C33.209139,9 35,10.790861 35,13 C35,15.209139 33.209139,17 31,17 C28.790861,17 27,15.209139 27,13 C27,10.790861 28.790861,9 31,9 Z M10,10 C8.34314575,10 7,11.3431458 7,13 C7,14.6568542 8.34314575,16 10,16 C11.6568542,16 13,14.6568542 13,13 C13,11.3431458 11.6568542,10 10,10 Z M40,10 C41.6568542,10 43,11.3431458 43,13 C43,14.6568542 41.6568542,16 40,16 C38.3431458,16 37,14.6568542 37,13 C37,11.3431458 38.3431458,10 40,10 Z M21,11 C19.8954305,11 19,11.8954305 19,13 C19,14.1045695 19.8954305,15 21,15 C22.1045695,15 23,14.1045695 23,13 C23,11.8954305 22.1045695,11 21,11 Z M31,11 C29.8954305,11 29,11.8954305 29,13 C29,14.1045695 29.8954305,15 31,15 C32.1045695,15 33,14.1045695 33,13 C33,11.8954305 32.1045695,11 31,11 Z M40,12 C39.4477153,12 39,12.4477153 39,13 C39,13.5522847 39.4477153,14 40,14 C40.5522847,14 41,13.5522847 41,13 C41,12.4477153 40.5522847,12 40,12 Z M41.9829167,4 C42.5352015,4 42.9829167,4.44771525 42.9829167,5 C42.9829167,5.51283584 42.5968766,5.93550716 42.0995379,5.99327227 L41.9829167,6 L6,6 C5.44771525,6 5,5.55228475 5,5 C5,4.48716416 5.38604019,4.06449284 5.88337887,4.00672773 L6,4 L41.9829167,4 Z" id="group1" fill="#000" fill-rule="nonzero"></path>
        <path d="M10,19.3 C12.5957383,19.3 14.7,21.4042617 14.7,24 C14.7,26.5957383 12.5957383,28.7 10,28.7 C7.40426168,28.7 5.3,26.5957383 5.3,24 C5.3,21.4042617 7.40426168,19.3 10,19.3 Z M21,20.3 C23.0434536,20.3 24.7,21.9565464 24.7,24 C24.7,26.0434536 23.0434536,27.7 21,27.7 C18.9565464,27.7 17.3,26.0434536 17.3,24 C17.3,21.9565464 18.9565464,20.3 21,20.3 Z M31,20.3 C33.0434536,20.3 34.7,21.9565464 34.7,24 C34.7,26.0434536 33.0434536,27.7 31,27.7 C28.9565464,27.7 27.3,26.0434536 27.3,24 C27.3,21.9565464 28.9565464,20.3 31,20.3 Z M10,20.7 C8.17746033,20.7 6.7,22.1774603 6.7,24 C6.7,25.8225397 8.17746033,27.3 10,27.3 C11.8225397,27.3 13.3,25.8225397 13.3,24 C13.3,22.1774603 11.8225397,20.7 10,20.7 Z M40,21.3 C41.4911688,21.3 42.7,22.5088312 42.7,24 C42.7,25.4911688 41.4911688,26.7 40,26.7 C38.5088312,26.7 37.3,25.4911688 37.3,24 C37.3,22.5088312 38.5088312,21.3 40,21.3 Z M21,21.7 C19.7297451,21.7 18.7,22.7297451 18.7,24 C18.7,25.2702549 19.7297451,26.3 21,26.3 C22.2702549,26.3 23.3,25.2702549 23.3,24 C23.3,22.7297451 22.2702549,21.7 21,21.7 Z M31,21.7 C29.7297451,21.7 28.7,22.7297451 28.7,24 C28.7,25.2702549 29.7297451,26.3 31,26.3 C32.2702549,26.3 33.3,25.2702549 33.3,24 C33.3,22.7297451 32.2702549,21.7 31,21.7 Z M40,22.7 C39.2820298,22.7 38.7,23.2820298 38.7,24 C38.7,24.7179702 39.2820298,25.3 40,25.3 C40.7179702,25.3 41.3,24.7179702 41.3,24 C41.3,23.2820298 40.7179702,22.7 40,22.7 Z" id="group2" fill="#cb0007" fill-rule="nonzero"></path>
    </g>
</svg>