<svg xmlns="http://www.w3.org/2000/svg" xmlns:xlink="http://www.w3.org/1999/xlink" width="48" height="48" viewBox="0 0 48 48" version="1.1" style="max-width: 200px; max-height: 200px;">
    <title>ic_oth_express</title>
    <g id="ic_oth_express" stroke="none" stroke-width="1" fill="none" fill-rule="evenodd">
        <path d="M31.2033993,6.1123682 C31.5296111,5.90489556 31.9622478,6.00115268 32.1697205,6.32736448 C32.3583319,6.62392067 32.2959271,7.00843134 32.0379342,7.23176875 L31.9547242,7.29368565 L13.688,18.91 L13.688,29.842 L15.518,30.853 L15.518755,20.3258426 C15.518755,20.1204745 15.6087869,19.9273352 15.7618908,19.7954747 L15.8435739,19.7348781 L34.3622137,7.9780922 C34.6885944,7.77088539 35.1211526,7.86749493 35.3283594,8.19387566 C35.5167292,8.4905854 35.4540112,8.8750451 35.1958364,9.09817226 L35.1125759,9.16002135 L16.918,20.71 L16.918755,32.0414961 C16.918755,32.541343 16.4157787,32.869159 15.9684816,32.6955376 L15.8799301,32.6540299 L12.649438,30.8670736 C12.4584192,30.761411 12.3295081,30.5739696 12.2965746,30.3621912 L12.2882629,30.2545398 L12.2882629,18.5268849 C12.2882629,18.3216904 12.3781436,18.128693 12.5310308,17.9968342 L12.6126005,17.9362262 L31.2033993,6.1123682 Z" id="group2" fill="#cb0007" fill-rule="nonzero"></path>
        <path d="M24.4882629,1.64652533 L43.0871894,12.3846206 C43.3965905,12.5632534 43.5871894,12.8933804 43.5871894,13.250646 L43.5871894,34.7268365 C43.5871894,35.084102 43.3965905,35.4142291 43.0871894,35.5928619 L24.4882629,46.3309571 L24.4655482,46.3438968 C24.4420913,46.3566611 24.4180666,46.3685137 24.3935217,46.3794072 L24.4882629,46.3309571 C24.4449093,46.3559873 24.4001461,46.3775102 24.3543683,46.3955259 C24.324224,46.4076529 24.2935011,46.4180522 24.2621507,46.4269604 C24.2535426,46.4291698 24.2448069,46.43153 24.2360477,46.4337696 C24.2126606,46.4399528 24.189101,46.4450584 24.1652484,46.4493183 C24.1455631,46.4526914 24.1260973,46.4555919 24.1065785,46.4579154 C24.0680046,46.4625659 24.02841,46.4649317 23.9882629,46.4649317 C23.9481158,46.4649317 23.9085212,46.4625659 23.8696111,46.457966 C23.8504846,46.4556003 23.8309907,46.4526964 23.8115764,46.4492138 C23.7874248,46.4450584 23.7638652,46.4399528 23.7406306,46.4340336 C23.7317189,46.43153 23.7229832,46.4291698 23.7142734,46.4266888 C23.6830247,46.4180522 23.6523018,46.4076529 23.6222879,46.395844 C23.6083693,46.3900996 23.5946731,46.3843551 23.5810797,46.3782925 C23.5592523,46.3688059 23.5379028,46.3583365 23.5169974,46.3471458 C23.5076706,46.3419472 23.4979317,46.3365394 23.4882629,46.3309571 L4.88933637,35.5928619 C4.57993529,35.4142291 4.38933637,35.084102 4.38933637,34.7268365 L4.38933637,13.250646 C4.38933637,12.8933804 4.57993529,12.5632534 4.88933637,12.3846206 L23.4882629,1.64652533 C23.797664,1.46789254 24.1788618,1.46789254 24.4882629,1.64652533 Z M23.988,3.66848243 L6.91433637,13.5245507 L13.3407745,17.4812622 C13.1337155,17.6082611 12.9879635,17.6990865 12.9035187,17.7537384 C12.6389868,17.9249411 12.4459609,18.1423219 12.3938751,18.2481995 C12.3168488,18.404775 12.282185,18.7118595 12.289884,19.169453 L12.1870173,19.1140903 L6.38833637,15.5485507 L6.389,34.1504824 L22.9873364,43.7325507 L22.9873364,25.7355507 L16.9131927,21.9498749 L16.915863,20.7070618 L17.7957163,20.1436255 L23.9863364,24.0025507 L40.8983364,13.4305507 L23.988,3.66848243 Z M41.5863364,15.3585507 L24.9873364,25.7365507 L24.9873364,43.7325507 L41.587,34.1504824 L41.5863364,15.3585507 Z M35.9813893,34.1166996 C36.1569892,34.4211409 36.0780014,34.8025905 35.8105843,35.0145528 L35.7247725,35.0728104 L28.0046765,39.5257152 C27.6697911,39.7188751 27.2417257,39.6039838 27.0485658,39.2690983 C26.8729658,38.964657 26.9519537,38.5832075 27.2193707,38.3712452 L27.3051826,38.3129876 L35.0252785,33.8600828 C35.360164,33.6669229 35.7882294,33.7818141 35.9813893,34.1166996 Z M31.4439732,33.5909967 C31.6195731,33.8954381 31.5405853,34.2768876 31.2731682,34.4888499 L31.1873563,34.5471075 L28.0046765,36.382858 C27.6697911,36.5760179 27.2417257,36.4611267 27.0485658,36.1262412 C26.8729658,35.8217999 26.9519537,35.4403503 27.2193707,35.228388 L27.3051826,35.1701304 L30.4878624,33.3343799 C30.8227479,33.14122 31.2508132,33.2561112 31.4439732,33.5909967 Z" id="group1" fill="#000" fill-rule="nonzero"></path>
    </g>
</svg>