<svg xmlns="http://www.w3.org/2000/svg" xmlns:xlink="http://www.w3.org/1999/xlink" width="48" height="48" viewBox="0 0 48 48" version="1.1" style="max-width: 200px; max-height: 200px;">
    <title>ic_biz_e-learning</title>
    <g id="ic_biz_e-learning" stroke="none" stroke-width="1" fill="none" fill-rule="evenodd">
        <path d="M45,6 L3,6 C2.44771525,6 2,6.44771525 2,7 L2,37 C2,37.5522847 2.44771525,38 3,38 L45,38 C45.5522847,38 46,37.5522847 46,37 L46,7 C46,6.44771525 45.5522847,6 45,6 Z M44,8 L44,36 L4,36 L4,8 L44,8 Z M42.5,40.5 C43.0522847,40.5 43.5,40.9477153 43.5,41.5 C43.5,42.0128358 43.1139598,42.4355072 42.6166211,42.4932723 L42.5,42.5 L6.5,42.5 C5.94771525,42.5 5.5,42.0522847 5.5,41.5 C5.5,40.9871642 5.88604019,40.5644928 6.38337887,40.5067277 L6.5,40.5 L42.5,40.5 Z" id="group1" fill="#000" fill-rule="nonzero"></path>
        <path d="M31.6622641,11.6614996 C28.8741774,11.591099 26.8216956,12.0699885 25.0071086,12.9917909 C24.8402178,13.0765707 24.6775343,13.1637462 24.5093975,13.2579378 L23.982,13.563 L23.6312694,13.385544 C19.688626,11.4489356 15.0673801,11.2738555 9.80045724,12.8402406 C9.50356487,12.9285365 9.3,13.2014533 9.3,13.5111971 L9.3,31.3550088 C9.3,31.8561195 9.81115473,32.1949192 10.2726815,31.999714 C14.0129826,30.4177337 18.5380125,30.1609282 23.8601163,31.2463585 C23.9597241,31.2666733 24.0625614,31.2650488 24.1614779,31.241598 C29.5701264,29.9593324 34.0740069,30.2149376 37.6925707,31.9838865 C38.157609,32.2112223 38.7,31.8726401 38.7,31.3550088 L38.7,13.5111971 C38.7,13.2692441 38.5750518,13.0444459 38.3695676,12.9167059 C37.3739085,12.2977509 35.1608036,11.7498394 31.6622641,11.6614996 Z M31.6269247,13.0610535 C33.5067125,13.1085191 35.0074345,13.2979201 36.162765,13.5839521 L36.3792245,13.6397419 C36.7275753,13.733203 37.0135776,13.8284177 37.2331404,13.9158201 L37.3,13.943 L37.3,30.279 L37.1766347,30.2283331 C33.5854971,28.8148979 29.3124652,28.6633903 24.3705697,29.7573791 L23.989,29.844 L23.5842668,29.765459 C18.7912779,28.8603803 14.5797022,29.0157792 10.957576,30.2427618 L10.7,30.333 L10.7,14.038 L11.1447002,13.91874 C15.9841768,12.6621216 20.1448792,13.0225342 23.6593713,14.980135 C23.8458148,15.0839855 24.0675132,15.0962486 24.2619696,15.0177486 L24.3635124,14.9668012 L24.9557382,14.6152732 C25.1983741,14.4741588 25.4166924,14.3540097 25.641179,14.2399714 C27.251494,13.4219384 29.0744504,12.9966022 31.6269247,13.0610535 Z M17,16.3 C17.3865993,16.3 17.7,16.6134007 17.7,17 C17.7,17.3543827 17.4366564,17.6472582 17.0949859,17.6936098 L17,17.7 L13,17.7 C12.6134007,17.7 12.3,17.3865993 12.3,17 C12.3,16.6456173 12.5633436,16.3527418 12.9050141,16.3063902 L13,16.3 L17,16.3 Z M19,20.3 C19.3865993,20.3 19.7,20.6134007 19.7,21 C19.7,21.3543827 19.4366564,21.6472582 19.0949859,21.6936098 L19,21.7 L13,21.7 C12.6134007,21.7 12.3,21.3865993 12.3,21 C12.3,20.6456173 12.5633436,20.3527418 12.9050141,20.3063902 L13,20.3 L19,20.3 Z M21,24.3 C21.3865993,24.3 21.7,24.6134007 21.7,25 C21.7,25.3543827 21.4366564,25.6472582 21.0949859,25.6936098 L21,25.7 L13,25.7 C12.6134007,25.7 12.3,25.3865993 12.3,25 C12.3,24.6456173 12.5633436,24.3527418 12.9050141,24.3063902 L13,24.3 L21,24.3 Z" id="group2" fill="#cb0007" fill-rule="nonzero"></path>
    </g>
</svg>