
<svg version="1.1" xmlns="http://www.w3.org/2000/svg" width="32" height="32" viewBox="0 0 32 32">
<title>loading</title>
<path fill="currentColor" d="M15.673 0c0.812 0 1.469 0.658 1.469 1.469v6.857c0 0.812-0.658 1.469-1.469 1.469s-1.469-0.658-1.469-1.469v-6.857c0-0.812 0.658-1.469 1.469-1.469z"></path>
<path fill="currentColor" opacity="0.6" d="M15.673 21.551c0.812 0 1.469 0.658 1.469 1.469v6.857c0 0.812-0.658 1.469-1.469 1.469s-1.469-0.658-1.469-1.469v-6.857c0-0.812 0.658-1.469 1.469-1.469z"></path>
<path fill="currentColor" d="M0 15.673c0-0.812 0.658-1.469 1.469-1.469h6.857c0.812 0 1.469 0.658 1.469 1.469s-0.658 1.469-1.469 1.469h-6.857c-0.812 0-1.469-0.658-1.469-1.469z"></path>
<path fill="currentColor" opacity="0.3" d="M21.551 15.673c0-0.812 0.658-1.469 1.469-1.469h6.857c0.812 0 1.469 0.658 1.469 1.469s-0.658 1.469-1.469 1.469h-6.857c-0.812 0-1.469-0.658-1.469-1.469z"></path>
<path fill="currentColor" opacity="0.2" d="M26.756 4.591c0.574 0.574 0.574 1.504 0 2.078l-4.849 4.849c-0.574 0.574-1.504 0.574-2.078 0s-0.574-1.504 0-2.078l4.849-4.849c0.574-0.574 1.504-0.574 2.078 0z"></path>
<path fill="currentColor" opacity="0.8" d="M11.517 19.83c0.574 0.574 0.574 1.504 0 2.078l-4.849 4.849c-0.574 0.574-1.504 0.574-2.078 0s-0.574-1.504 0-2.078l4.849-4.849c0.574-0.574 1.504-0.574 2.078 0z"></path>
<path fill="currentColor" d="M4.591 4.591c0.574-0.574 1.504-0.574 2.078 0l4.849 4.849c0.574 0.574 0.574 1.504 0 2.078s-1.504 0.574-2.078 0l-4.849-4.849c-0.574-0.574-0.574-1.504 0-2.078z"></path>
<path fill="currentColor" opacity="0.4" d="M19.83 19.83c0.574-0.574 1.504-0.574 2.078 0l4.849 4.849c0.574 0.574 0.574 1.504 0 2.078s-1.504 0.574-2.078 0l-4.849-4.849c-0.574-0.574-0.574-1.504 0-2.078z"></path>
</svg>
