<svg xmlns="http://www.w3.org/2000/svg" xmlns:xlink="http://www.w3.org/1999/xlink" width="48" height="48" viewBox="0 0 48 48" version="1.1" style="max-width: 200px; max-height: 200px;">
    <title>ic_oth_shop</title>
    <g id="ic_oth_shop" stroke="none" stroke-width="1" fill="none" fill-rule="evenodd">
        <path d="M39.0700982,4 C39.5333789,4 39.9360012,4.31820754 40.0430408,4.76895305 L40.0430408,4.76895305 L43.9729426,21.317836 C44.0160511,21.4993666 44.0075139,21.6893371 43.9482963,21.8662693 C43.3431128,23.6744551 41.9972447,24.8425397 39.999731,25.3824233 L39.999784,43.5943218 C39.999784,44.1071576 39.6137439,44.5298289 39.1164052,44.5875941 L38.999784,44.5943218 L9,44.5943218 C8.48716416,44.5943218 8.06449284,44.2082816 8.00672773,43.7109429 L8,43.5943218 L7.99981181,25.7039039 C5.72280206,25.1503105 4.34127936,23.8194271 4.01189133,21.7026401 C3.99093793,21.5679847 3.99772814,21.4304674 4.03184509,21.2985311 L4.03184509,21.2985311 L8.31116438,4.74964812 C8.42529053,4.30830214 8.82345632,4 9.27931929,4 L9.27931929,4 Z M10,42.594 L19.0311572,42.5947813 C19.0201639,42.5518188 19.0119529,42.5077423 19.0067277,42.4627551 L19,42.346134 L19,37.08 L9.99999997,37.08 L10,42.594 Z M29.953,23.54 L29.8339259,23.6756718 C28.48368,25.150668 26.6713882,25.9305389 24.4555532,25.9955654 L24.4555532,25.9955654 L24.1508981,26 C22.9976602,26 21.94505,25.786471 21.000339,25.3647839 L21,42.346134 C21,42.4319719 20.9891848,42.5152838 20.9688428,42.5947813 L37.999,42.594 L38.0000533,25.7009494 C37.6959077,25.7212317 37.3816088,25.7313605 37.0573409,25.7313605 C34.1651327,25.7313605 31.8375109,25.0526961 30.1173829,23.6769681 L30.1173829,23.6769681 L29.953,23.54 Z M18.281,23.22 L18.2068606,23.299807 C16.5122034,25.0292798 14.1392753,25.9266627 11.1490843,25.9956862 L11.1490843,25.9956862 L10.7720999,26 C10.5076506,26 10.2502017,25.9935447 9.99987252,25.9806274 L9.99999997,35.08 L19,35.08 L18.9998302,24.0100009 C18.8369855,23.8537893 18.6791808,23.6885225 18.5264841,23.5142509 L18.3329798,23.2852295 L18.281,23.22 Z M19.091,6 L10.053,6 L6.023,21.585 L6.05522301,21.7191815 C6.43904729,23.1816258 7.81847252,23.9462724 10.4818157,23.9972677 L10.4818157,23.9972677 L10.7720999,24 C13.9503021,24 16.1606731,22.9933241 17.522369,20.9872582 C17.5475402,20.9501758 17.5745421,20.9154675 17.6031422,20.8831251 L19.091,6 Z M27.226,6 L20.7089655,6.00004093 C20.7107196,6.01860103 20.7118409,6.03731909 20.7123095,6.05617065 L20.7084692,6.15821311 L19.2193681,21.0550383 C20.3781487,23.0465219 21.9838436,24 24.1508981,24 C26.3482095,24 27.9224235,23.1768845 28.9941496,21.4900008 L28.925,21.593 L27.226,6 Z M38.28,6 L28.861,6 L30.528,21.303 L30.5942831,21.3717716 C31.8923081,22.8712856 33.9058986,23.6663298 36.7035464,23.7275341 L37.0573409,23.7313605 C39.7226492,23.7313605 41.2740802,22.9989595 41.9224104,21.5623288 L41.9224104,21.5623288 L41.956,21.48 L38.28,6 Z" id="group1" fill="#000" fill-rule="nonzero"></path>
        <path d="M33,29.3 C33.3865993,29.3 33.7,29.6134007 33.7,30 L33.7,30 L33.7,37 C33.7,37.3865993 33.3865993,37.7 33,37.7 L33,37.7 L26,37.7 C25.6134007,37.7 25.3,37.3865993 25.3,37 L25.3,37 L25.3,30 C25.3,29.6134007 25.6134007,29.3 26,29.3 L26,29.3 Z M28.849,34.2 L26.699,34.2 L26.7,36.3 L28.849,36.3 L28.849,34.2 Z M32.298,34.2 L30.249,34.2 L30.249,36.3 L32.299,36.3 L32.298,34.2 Z M28.849,30.7 L26.7,30.7 L26.699,32.8 L28.849,32.8 L28.849,30.7 Z M32.299,30.7 L30.249,30.7 L30.249,32.8 L32.298,32.8 L32.299,30.7 Z" id="group2" fill="#cb0007" fill-rule="nonzero"></path>
    </g>
</svg>